<svg width="563" height="375" viewBox="0 0 563 375" fill="none" xmlns="http://www.w3.org/2000/svg">
<path d="M547.161 320.715C547.161 320.82 428.167 320.91 281.418 320.91C134.668 320.91 15.6515 320.82 15.6515 320.715C15.6515 320.61 134.616 320.52 281.418 320.52C428.219 320.52 547.161 320.602 547.161 320.715Z" fill="#263238"/>
<path d="M384.488 90.0399H123.601C121.444 90.0379 119.374 90.8923 117.847 92.4154C116.319 93.9385 115.459 96.0057 115.455 98.1626V282.454C115.454 283.524 115.664 284.583 116.073 285.572C116.482 286.561 117.082 287.459 117.839 288.215C118.595 288.972 119.494 289.572 120.482 289.981C121.471 290.39 122.531 290.6 123.601 290.599H223.726C223.726 290.599 230.096 310.299 210.351 320.49H303.98C303.98 320.49 281.687 312.847 287.42 290.599H384.488C386.641 290.599 388.706 289.747 390.232 288.229C391.758 286.711 392.622 284.651 392.634 282.499V98.1626C392.628 96.0063 391.767 93.9403 390.24 92.4176C388.713 90.8949 386.645 90.0399 384.488 90.0399Z" fill="#455A64"/>
<path d="M257.521 271.259C261.066 276.332 255.513 281.884 250.44 278.34C250.27 278.22 250.123 278.07 250.006 277.898C246.469 272.832 252.014 267.28 257.087 270.824C257.255 270.944 257.402 271.09 257.521 271.259Z" fill="#263238"/>
<path d="M127.212 93.4119H380.877C381.831 93.4119 382.776 93.5999 383.658 93.9651C384.54 94.3304 385.341 94.8658 386.016 95.5408C386.691 96.2157 387.227 97.017 387.592 97.8988C387.957 98.7807 388.145 99.7259 388.145 100.68V256.886H119.944V100.68C119.944 99.7259 120.132 98.7807 120.497 97.8988C120.862 97.017 121.398 96.2157 122.073 95.5408C122.748 94.8658 123.549 94.3304 124.431 93.9651C125.313 93.5999 126.258 93.4119 127.212 93.4119Z" fill="white"/>
<path d="M126.808 93.4119H382.51C384.005 93.4119 385.438 94.0056 386.495 95.0623C387.551 96.1191 388.145 97.5524 388.145 99.0468V106.997H119.944V100.253C119.948 98.4361 120.673 96.6949 121.96 95.4121C123.247 94.1293 124.991 93.4099 126.808 93.4119Z" fill="#EBEBEB"/>
<path d="M128.486 102.374C129.525 102.374 130.367 101.532 130.367 100.493C130.367 99.4543 129.525 98.6122 128.486 98.6122C127.447 98.6122 126.605 99.4543 126.605 100.493C126.605 101.532 127.447 102.374 128.486 102.374Z" fill="#E0E0E0"/>
<path d="M134.106 102.374C135.145 102.374 135.987 101.532 135.987 100.493C135.987 99.4543 135.145 98.6122 134.106 98.6122C133.067 98.6122 132.225 99.4543 132.225 100.493C132.225 101.532 133.067 102.374 134.106 102.374Z" fill="#E0E0E0"/>
<path d="M139.441 102.374C140.48 102.374 141.322 101.532 141.322 100.493C141.322 99.4543 140.48 98.6122 139.441 98.6122C138.403 98.6122 137.561 99.4543 137.561 100.493C137.561 101.532 138.403 102.374 139.441 102.374Z" fill="#E0E0E0"/>
<path d="M337.85 290.629C337.85 290.711 300.72 290.786 254.936 290.786C209.152 290.786 172.015 290.711 172.015 290.629C172.015 290.546 209.137 290.472 254.936 290.472C300.735 290.472 337.85 290.539 337.85 290.629Z" fill="#263238"/>
<path d="M387.531 128.983H120.034V188.697H387.531V128.983Z" fill="#F5F5F5"/>
<path d="M165.211 113.254H126.605V123.355H165.211V113.254Z" fill="#F5F5F5"/>
<path d="M381.184 113.254H360.045V123.355H381.184V113.254Z" fill="#F5F5F5"/>
<path d="M353.691 113.254H319.102V123.355H353.691V113.254Z" fill="#F5F5F5"/>
<path d="M311.908 113.254H277.319V123.355H311.908V113.254Z" fill="#F5F5F5"/>
<path d="M368.812 205.52H133.057V216.1H368.812V205.52Z" fill="#F5F5F5"/>
<path d="M368.812 225.212H133.057V235.793H368.812V225.212Z" fill="#F5F5F5"/>
<path d="M225.892 164.891L232.389 158.394L243.719 168.72L263.696 148.773L269.728 155.269L242.789 181.256L225.892 164.891Z" fill="#E54646"/>
<path d="M235.236 149.649C233.595 148.129 232.143 146.415 230.913 144.546C231.772 145.265 232.547 146.079 233.22 146.974C233.988 147.789 234.664 148.686 235.236 149.649Z" fill="#263238"/>
<path d="M243.951 148.705C243.642 146.296 243.465 143.872 243.419 141.444C243.247 139.023 243.202 136.594 243.284 134.168C243.588 136.577 243.763 139.001 243.809 141.429C243.985 143.85 244.032 146.279 243.951 148.705Z" fill="#263238"/>
<path d="M257.416 144.254C256.122 146.305 254.615 148.214 252.92 149.949C253.508 148.876 254.211 147.871 255.019 146.952C255.722 145.972 256.526 145.068 257.416 144.254Z" fill="#263238"/>
<path d="M484.697 145.543H373.593C370.584 145.543 368.145 147.982 368.145 150.991V315.17C368.145 318.178 370.584 320.617 373.593 320.617H484.697C487.705 320.617 490.144 318.178 490.144 315.17V150.991C490.144 147.982 487.705 145.543 484.697 145.543Z" fill="#E0E0E0"/>
<path d="M484.697 320.617H485.079C485.453 320.592 485.822 320.524 486.18 320.415C486.888 320.21 487.547 319.863 488.116 319.395C488.685 318.928 489.154 318.349 489.492 317.695C489.726 317.238 489.894 316.751 489.995 316.249C490.085 315.686 490.117 315.116 490.092 314.548C490.092 313.341 490.092 312.03 490.092 310.606C490.092 307.759 490.092 304.469 490.092 300.775C490.092 285.976 490.054 264.567 490.025 238.108C490.025 224.882 490.025 210.383 490.025 194.842C490.025 187.064 490.025 179.028 490.025 170.736C490.025 166.589 490.025 162.385 490.025 158.124V151.665C490.046 151.134 490.019 150.602 489.942 150.076C489.855 149.554 489.685 149.048 489.44 148.578C488.959 147.627 488.201 146.843 487.267 146.33C486.796 146.081 486.291 145.901 485.768 145.798C485.236 145.709 484.696 145.674 484.157 145.693H373.608C372.382 145.699 371.194 146.125 370.244 146.899C369.305 147.684 368.667 148.77 368.438 149.972C368.344 150.579 368.312 151.194 368.34 151.807V201.316C368.34 220.349 368.34 238.715 368.34 256.205C368.34 273.694 368.34 290.322 368.34 305.878C368.34 307.819 368.34 309.744 368.34 311.655V314.51C368.279 315.432 368.425 316.357 368.767 317.215C369.128 318.048 369.696 318.775 370.418 319.326C371.139 319.877 371.99 320.234 372.889 320.362C373.339 320.417 373.792 320.437 374.245 320.422H378.336H399.1L461.76 320.482L478.792 320.52L461.76 320.557L399.1 320.617H378.336H374.245C373.78 320.634 373.313 320.614 372.851 320.557C371.9 320.424 370.999 320.049 370.234 319.468C369.469 318.886 368.866 318.119 368.483 317.238C368.123 316.339 367.967 315.372 368.026 314.405V305.923C368.026 290.367 368.026 273.739 368.026 256.249C368.026 238.76 368.026 220.394 368.026 201.361C368.026 191.844 368.026 182.165 368.026 172.324V151.852C367.994 151.213 368.029 150.573 368.13 149.942C368.374 148.648 369.062 147.48 370.076 146.641C371.091 145.802 372.367 145.345 373.683 145.348H484.112C484.674 145.331 485.236 145.366 485.791 145.453C486.344 145.572 486.879 145.766 487.379 146.03C488.374 146.575 489.182 147.405 489.702 148.413C489.958 148.912 490.135 149.448 490.227 150.001C490.308 150.547 490.338 151.099 490.317 151.65V170.691C490.317 178.973 490.317 187.009 490.317 194.797C490.317 210.345 490.317 224.837 490.317 238.063C490.317 264.522 490.272 285.931 490.257 300.73C490.257 304.424 490.257 307.714 490.257 310.561C490.257 311.985 490.257 313.296 490.257 314.503C490.277 315.077 490.24 315.652 490.144 316.219C489.949 317.208 489.483 318.124 488.797 318.863C488.112 319.603 487.234 320.138 486.263 320.407C485.898 320.51 485.524 320.572 485.146 320.595L484.697 320.617Z" fill="#263238"/>
<path d="M484.697 320.617H485.079C485.206 320.617 485.356 320.617 485.543 320.557C485.759 320.526 485.972 320.478 486.18 320.415C486.891 320.213 487.552 319.868 488.123 319.4C488.694 318.932 489.163 318.351 489.5 317.695C489.738 317.239 489.909 316.752 490.009 316.249C490.099 315.684 490.134 315.112 490.114 314.54C490.114 313.341 490.114 312.022 490.114 310.599C490.114 307.751 490.114 304.474 490.114 300.767C490.114 285.968 490.114 264.56 490.114 238.101C490.114 224.875 490.114 210.375 490.114 194.834C490.114 187.056 490.114 179.021 490.114 170.728V151.665C490.134 151.131 490.104 150.597 490.024 150.069C489.937 149.546 489.768 149.04 489.522 148.57C489.027 147.622 488.263 146.84 487.327 146.322C486.854 146.077 486.35 145.895 485.828 145.783C485.293 145.695 484.751 145.66 484.21 145.678H373.608C372.365 145.677 371.161 146.11 370.204 146.902C369.246 147.694 368.595 148.796 368.363 150.016C368.273 150.629 368.241 151.249 368.265 151.867V201.376C368.265 220.409 368.265 238.775 368.265 256.264C368.265 273.754 368.265 290.382 368.265 305.938C368.265 307.881 368.265 309.807 368.265 311.715V314.57C368.254 315.038 368.276 315.507 368.333 315.971C368.399 316.427 368.522 316.873 368.7 317.298C369.064 318.14 369.639 318.874 370.368 319.43C371.098 319.987 371.958 320.346 372.866 320.475C373.319 320.529 373.775 320.549 374.23 320.535H399.085L461.745 320.58L399.085 320.625H374.208C373.745 320.638 373.281 320.618 372.821 320.565C371.88 320.431 370.988 320.059 370.231 319.483C369.474 318.907 368.877 318.147 368.498 317.275C368.31 316.834 368.182 316.371 368.115 315.896C368.052 315.422 368.029 314.943 368.048 314.465V305.923C368.048 290.367 368.048 273.746 368.048 256.249C368.048 238.753 368.048 220.394 368.048 201.361V151.852C368.017 151.219 368.05 150.584 368.145 149.957C368.387 148.679 369.067 147.527 370.069 146.699C371.071 145.871 372.331 145.42 373.631 145.423H484.112C484.669 145.406 485.226 145.441 485.776 145.528C486.324 145.646 486.853 145.837 487.349 146.097C488.33 146.637 489.128 147.456 489.642 148.45C489.895 148.943 490.072 149.471 490.167 150.016C490.249 150.559 490.279 151.109 490.257 151.658C490.257 153.816 490.257 155.959 490.257 158.087V170.698C490.257 178.981 490.257 187.016 490.257 194.804C490.257 210.353 490.257 224.845 490.257 238.071C490.257 264.53 490.257 285.938 490.257 300.737C490.257 304.439 490.257 307.716 490.257 310.569C490.257 311.992 490.257 313.311 490.257 314.51C490.277 315.084 490.24 315.659 490.144 316.226C489.87 317.593 489.085 318.804 487.949 319.613C487.439 319.972 486.871 320.24 486.27 320.407C486.06 320.472 485.844 320.519 485.626 320.55C485.472 320.577 485.317 320.592 485.161 320.595L484.697 320.617Z" fill="#263238"/>
<path d="M433.824 311.82C433.824 312.746 433.55 313.652 433.035 314.422C432.521 315.192 431.789 315.792 430.933 316.147C430.078 316.501 429.136 316.594 428.227 316.413C427.319 316.233 426.484 315.787 425.829 315.132C425.175 314.477 424.728 313.642 424.548 312.734C424.367 311.825 424.46 310.884 424.814 310.028C425.169 309.172 425.769 308.441 426.539 307.926C427.309 307.411 428.215 307.137 429.141 307.137C430.383 307.137 431.574 307.63 432.453 308.508C433.331 309.387 433.824 310.578 433.824 311.82Z" fill="white"/>
<path d="M444.383 153.958H419.467C419.239 153.958 419.014 153.913 418.803 153.826C418.593 153.738 418.402 153.61 418.241 153.448C418.08 153.287 417.953 153.095 417.866 152.884C417.779 152.673 417.735 152.447 417.736 152.22C417.735 151.992 417.779 151.766 417.866 151.555C417.953 151.344 418.08 151.152 418.241 150.991C418.402 150.829 418.593 150.701 418.803 150.614C419.014 150.526 419.239 150.481 419.467 150.481H444.383C444.611 150.481 444.837 150.526 445.048 150.613C445.259 150.701 445.45 150.829 445.612 150.99C445.773 151.152 445.901 151.343 445.989 151.554C446.076 151.765 446.121 151.991 446.121 152.22C446.121 152.448 446.076 152.674 445.989 152.885C445.901 153.096 445.773 153.287 445.612 153.449C445.45 153.61 445.259 153.738 445.048 153.826C444.837 153.913 444.611 153.958 444.383 153.958Z" fill="#EBEBEB"/>
<path d="M484.367 158.034H373.705C372.7 158.034 371.885 158.85 371.885 159.855V302.423C371.885 303.429 372.7 304.244 373.705 304.244H484.367C485.373 304.244 486.188 303.429 486.188 302.423V159.855C486.188 158.85 485.373 158.034 484.367 158.034Z" fill="white"/>
<path d="M484.367 304.229C484.367 304.229 484.479 304.229 484.697 304.184C485.023 304.118 485.326 303.965 485.573 303.742C485.774 303.558 485.93 303.331 486.031 303.078C486.132 302.825 486.175 302.553 486.158 302.281C486.158 301.629 486.158 300.865 486.158 300.033C486.158 296.579 486.158 291.491 486.12 284.949C486.12 271.836 486.12 252.877 486.06 229.453C486.06 217.734 486.06 204.905 486.06 191.132C486.06 184.239 486.06 177.122 486.06 169.784V160.043C486.091 159.608 485.957 159.177 485.686 158.836C485.41 158.504 485.014 158.294 484.584 158.252C484.142 158.252 483.648 158.252 483.176 158.252H474.506H373.72C373.471 158.25 373.224 158.307 372.999 158.416C372.774 158.525 372.578 158.684 372.424 158.881C372.273 159.08 372.168 159.311 372.117 159.556C372.081 159.819 372.068 160.084 372.079 160.35V209.199C372.079 226.059 372.079 242.319 372.079 257.808C372.079 273.297 372.079 288.021 372.079 301.801V302.446C372.082 302.74 372.162 303.028 372.31 303.282C372.459 303.535 372.671 303.746 372.926 303.892C373.285 304.074 373.688 304.147 374.088 304.102H408.557L464.053 304.162H479.137H483.063H484.397L483.071 304.229H479.144L464.06 304.267L408.564 304.327H390.176H374.058C373.603 304.367 373.146 304.279 372.739 304.072C372.328 303.842 372.015 303.473 371.855 303.03C371.771 302.813 371.728 302.582 371.727 302.348V301.704C371.727 287.924 371.727 273.229 371.727 257.711C371.727 242.192 371.727 225.961 371.727 209.101V183.459C371.727 179.103 371.727 174.72 371.727 170.308V160.357C371.717 160.067 371.732 159.776 371.772 159.488C371.833 159.185 371.963 158.9 372.154 158.656C372.343 158.411 372.586 158.212 372.864 158.076C373.142 157.939 373.448 157.869 373.758 157.87H474.543H483.168C483.655 157.87 484.105 157.87 484.614 157.87C484.875 157.9 485.127 157.983 485.356 158.111C485.585 158.24 485.786 158.412 485.948 158.619C486.271 159.021 486.434 159.528 486.405 160.043V169.784C486.405 177.122 486.405 184.239 486.405 191.132C486.405 204.905 486.405 217.734 486.405 229.453C486.405 252.877 486.353 271.836 486.338 284.949C486.338 291.491 486.338 296.579 486.338 300.033C486.338 300.895 486.338 301.659 486.338 302.281C486.354 302.562 486.306 302.842 486.198 303.102C486.091 303.361 485.926 303.593 485.716 303.78C485.466 304.006 485.157 304.157 484.824 304.214C484.674 304.247 484.519 304.252 484.367 304.229Z" fill="#263238"/>
<path d="M485.723 178.858H372.574V220.281H485.723V178.858Z" fill="#F5F5F5"/>
<path d="M401.873 164.838H375.092V171.845H401.873V164.838Z" fill="#F5F5F5"/>
<path d="M483.483 164.838H459.489V171.845H483.483V164.838Z" fill="#F5F5F5"/>
<path d="M454.926 164.838H430.932V171.845H454.926V164.838Z" fill="#F5F5F5"/>
<path d="M476.207 241.615H379.603V248.958H476.207V241.615Z" fill="#F5F5F5"/>
<path d="M476.207 227.73H379.603V235.073H476.207V227.73Z" fill="#F5F5F5"/>
<path d="M476.207 270.052H379.603V277.396H476.207V270.052Z" fill="#F5F5F5"/>
<path d="M476.207 256.167H379.603V263.511H476.207V256.167Z" fill="#F5F5F5"/>
<path d="M513.996 320.827H466.728C464.002 320.829 461.388 319.749 459.459 317.824C457.529 315.899 456.443 313.287 456.439 310.561V192.414C456.434 191.056 456.698 189.711 457.215 188.456C457.732 187.201 458.493 186.061 459.453 185.101C460.413 184.141 461.553 183.381 462.808 182.864C464.063 182.347 465.408 182.083 466.765 182.088H514.033C515.383 182.086 516.72 182.35 517.967 182.865C519.215 183.38 520.349 184.136 521.305 185.089C522.26 186.042 523.018 187.175 523.536 188.421C524.054 189.668 524.32 191.004 524.321 192.354V310.501C524.326 311.859 524.063 313.204 523.546 314.459C523.028 315.714 522.268 316.854 521.308 317.814C520.348 318.774 519.208 319.534 517.953 320.051C516.698 320.568 515.353 320.832 513.996 320.827Z" fill="#263238"/>
<path d="M514.325 185.67L505.131 185.625C504.829 185.625 504.531 185.685 504.253 185.803C503.975 185.92 503.724 186.093 503.514 186.309C503.305 186.526 503.141 186.783 503.032 187.064C502.924 187.346 502.873 187.646 502.883 187.948V189.619C502.888 189.919 502.834 190.217 502.724 190.496C502.613 190.775 502.449 191.03 502.24 191.246C502.032 191.462 501.782 191.634 501.507 191.753C501.231 191.873 500.935 191.937 500.635 191.942L482.711 191.829C482.409 191.824 482.111 191.76 481.834 191.639C481.557 191.518 481.307 191.344 481.098 191.126C480.889 190.907 480.725 190.65 480.616 190.368C480.507 190.086 480.455 189.786 480.463 189.484V187.813C480.47 187.511 480.417 187.211 480.308 186.93C480.199 186.648 480.035 186.391 479.826 186.173C479.617 185.955 479.367 185.781 479.091 185.66C478.814 185.539 478.517 185.473 478.215 185.467H474.978L466.93 185.43C465.011 185.424 463.168 186.18 461.805 187.531C460.442 188.883 459.671 190.719 459.662 192.639L459.234 308.725C459.23 309.675 459.414 310.616 459.773 311.495C460.133 312.374 460.662 313.173 461.331 313.847C462 314.521 462.795 315.057 463.671 315.424C464.546 315.791 465.486 315.982 466.436 315.986L513.793 316.219C515.712 316.227 517.555 315.473 518.918 314.122C520.281 312.772 521.052 310.936 521.062 309.018L521.549 192.961C521.557 192.007 521.376 191.061 521.017 190.177C520.657 189.293 520.126 188.489 519.455 187.811C518.784 187.134 517.985 186.596 517.104 186.228C516.224 185.86 515.279 185.671 514.325 185.67Z" fill="white"/>
<path d="M521.182 206.329H459.587V228.876H521.182V206.329Z" fill="#F5F5F5"/>
<path d="M475.532 198.693H460.958V202.507H475.532V198.693Z" fill="#F5F5F5"/>
<path d="M519.96 198.693H506.899V202.507H519.96V198.693Z" fill="#F5F5F5"/>
<path d="M504.419 198.693H491.358V202.507H504.419V198.693Z" fill="#F5F5F5"/>
<path d="M515.996 240.491H463.408V244.485H515.996V240.491Z" fill="#F5F5F5"/>
<path d="M515.996 232.93H463.408V236.924H515.996V232.93Z" fill="#F5F5F5"/>
<path d="M515.996 255.972H463.408V259.966H515.996V255.972Z" fill="#F5F5F5"/>
<path d="M515.996 263.038H463.408V267.032H515.996V263.038Z" fill="#F5F5F5"/>
<path d="M515.996 271.124H463.408V275.118H515.996V271.124Z" fill="#F5F5F5"/>
<path d="M515.996 279.202H463.408V283.195H515.996V279.202Z" fill="#F5F5F5"/>
<path d="M515.996 287.287H463.408V291.281H515.996V287.287Z" fill="#F5F5F5"/>
<path d="M515.996 248.411H463.408V252.405H515.996V248.411Z" fill="#F5F5F5"/>
<path d="M223.502 182.253H40.6492C34.6195 182.253 29.7314 187.141 29.7314 193.171V306.695C29.7314 312.724 34.6195 317.612 40.6492 317.612H223.502C229.531 317.612 234.419 312.724 234.419 306.695V193.171C234.419 187.141 229.531 182.253 223.502 182.253Z" fill="#263238"/>
<path d="M21.7361 308.868H243.494V309.392C243.494 312.393 242.302 315.271 240.18 317.393C238.058 319.515 235.18 320.707 232.179 320.707H33.051C30.0501 320.707 27.1721 319.515 25.0502 317.393C22.9282 315.271 21.7361 312.393 21.7361 309.392V308.868Z" fill="#263238"/>
<path d="M228.357 187.633H35.2316V301.944H228.357V187.633Z" fill="#263238"/>
<path d="M111.896 307.601L114.653 311.977H153.371L155.927 307.601H111.896Z" fill="#455A64"/>
<path d="M222.318 191.5H41.6534C40.3001 191.5 39.2031 192.597 39.2031 193.95V299.119C39.2031 300.472 40.3001 301.569 41.6534 301.569H222.318C223.671 301.569 224.768 300.472 224.768 299.119V193.95C224.768 192.597 223.671 191.5 222.318 191.5Z" fill="#EBEBEB"/>
<path d="M224.573 301.734H39.0082L39.2031 199.727H224.573V301.734Z" fill="white"/>
<path d="M54.452 195.756C54.452 196.052 54.3641 196.342 54.1994 196.588C54.0347 196.835 53.8007 197.027 53.5268 197.14C53.253 197.254 52.9517 197.284 52.6609 197.226C52.3702 197.168 52.1032 197.025 51.8936 196.816C51.684 196.606 51.5413 196.339 51.4834 196.048C51.4256 195.758 51.4553 195.456 51.5687 195.182C51.6822 194.909 51.8743 194.674 52.1207 194.51C52.3672 194.345 52.6569 194.257 52.9533 194.257C53.3508 194.257 53.732 194.415 54.013 194.696C54.2941 194.977 54.452 195.358 54.452 195.756Z" fill="#263238"/>
<path d="M45.46 195.756C45.46 196.052 45.3721 196.342 45.2074 196.588C45.0427 196.835 44.8087 197.027 44.5348 197.14C44.261 197.254 43.9597 197.284 43.6689 197.226C43.3782 197.168 43.1112 197.025 42.9016 196.816C42.692 196.606 42.5493 196.339 42.4914 196.048C42.4336 195.758 42.4633 195.456 42.5767 195.182C42.6902 194.909 42.8822 194.674 43.1287 194.51C43.3752 194.345 43.6649 194.257 43.9613 194.257C44.3588 194.257 44.74 194.415 45.021 194.696C45.3021 194.977 45.46 195.358 45.46 195.756Z" fill="#263238"/>
<path d="M49.7537 195.756C49.7537 196.052 49.6658 196.342 49.5011 196.588C49.3364 196.835 49.1024 197.027 48.8285 197.14C48.5547 197.254 48.2534 197.284 47.9626 197.226C47.6719 197.168 47.4049 197.025 47.1953 196.816C46.9857 196.606 46.843 196.339 46.7851 196.048C46.7273 195.758 46.757 195.456 46.8704 195.182C46.9839 194.909 47.1759 194.674 47.4224 194.51C47.6689 194.345 47.9586 194.257 48.255 194.257C48.6525 194.257 49.0337 194.415 49.3147 194.696C49.5958 194.977 49.7537 195.358 49.7537 195.756Z" fill="#263238"/>
<path d="M232.658 307.601C232.658 307.676 187.234 307.736 131.206 307.736C75.1786 307.736 29.724 307.676 29.724 307.601C29.724 307.526 75.1486 307.466 131.199 307.466C187.249 307.466 232.658 307.526 232.658 307.601Z" fill="#455A64"/>
<path d="M224.768 216.175H39.2031V257.598H224.768V216.175Z" fill="#F5F5F5"/>
<path d="M70.5401 205.265H43.759V212.271H70.5401V205.265Z" fill="#F5F5F5"/>
<path d="M220.369 205.265H205.705V212.271H220.369V205.265Z" fill="#F5F5F5"/>
<path d="M201.299 205.265H177.305V212.271H201.299V205.265Z" fill="#F5F5F5"/>
<path d="M172.315 205.265H148.321V212.271H172.315V205.265Z" fill="#F5F5F5"/>
<path d="M211.819 282.042H48.27V289.385H211.819V282.042Z" fill="#F5F5F5"/>
<path d="M211.819 268.149H48.27V275.492H211.819V268.149Z" fill="#F5F5F5"/>
<path d="M108.464 243.736L114.968 237.239L127.497 248.374L152.098 224.703L158.13 231.199L126.568 260.91L108.464 243.736Z" fill="#E54646"/>
<path d="M328.611 180.777C327.72 180.828 326.843 180.548 326.146 179.992C325.449 179.436 324.982 178.642 324.834 177.763C324.687 176.883 324.869 175.98 325.346 175.227C325.823 174.474 326.561 173.923 327.419 173.68C326.883 173.092 326.547 172.348 326.462 171.556C326.377 170.765 326.546 169.966 326.946 169.277C327.345 168.588 327.953 168.045 328.682 167.725C329.411 167.405 330.224 167.326 331.001 167.498C331.069 166.722 331.337 165.977 331.78 165.335C332.223 164.694 332.825 164.179 333.527 163.84C334.229 163.502 335.007 163.352 335.784 163.404C336.562 163.457 337.312 163.711 337.962 164.141C338.87 163.469 339.976 163.12 341.106 163.151C342.235 163.182 343.321 163.592 344.189 164.314C344.953 164.208 345.731 164.351 346.408 164.721C347.085 165.091 347.625 165.669 347.948 166.369C348.272 167.069 348.361 167.855 348.204 168.611C348.046 169.366 347.65 170.05 347.074 170.563" fill="#263238"/>
<path d="M328.064 181.264C328.546 177.433 330.454 173.925 333.408 171.439C336.362 168.953 340.145 167.671 344.002 167.851L344.796 167.888C353.331 168.787 357.34 176.535 356.201 185.048L353.631 213.523L352.956 220.229L333.556 217.936L333.923 210.675C333.923 210.675 325.756 209.012 326.04 200.776C326.175 196.805 327.119 188.637 328.064 181.264Z" fill="#FFA8A7"/>
<path d="M333.856 210.66C337.677 210.841 341.469 209.92 344.781 208.007C344.781 208.007 341.971 213.807 333.796 212.683L333.856 210.66Z" fill="#744A45"/>
<path d="M329.877 188.832C329.86 189.137 329.963 189.436 330.163 189.667C330.363 189.898 330.644 190.042 330.948 190.068C331.098 190.087 331.249 190.076 331.394 190.035C331.539 189.995 331.675 189.926 331.793 189.832C331.911 189.739 332.009 189.623 332.081 189.491C332.154 189.359 332.199 189.214 332.215 189.064C332.232 188.758 332.128 188.458 331.927 188.227C331.725 187.996 331.441 187.853 331.136 187.828C330.987 187.808 330.835 187.819 330.69 187.859C330.545 187.899 330.41 187.968 330.293 188.062C330.175 188.156 330.078 188.272 330.006 188.404C329.935 188.537 329.891 188.682 329.877 188.832Z" fill="#263238"/>
<path d="M329.645 185.37C329.787 185.527 330.701 184.913 331.968 184.973C333.234 185.033 334.133 185.722 334.276 185.565C334.418 185.408 334.208 185.213 333.818 184.905C333.29 184.499 332.649 184.266 331.983 184.239C331.325 184.205 330.673 184.384 330.124 184.748C329.72 185.025 329.577 185.295 329.645 185.37Z" fill="#263238"/>
<path d="M341.387 189.424C341.372 189.73 341.476 190.029 341.677 190.259C341.878 190.49 342.161 190.634 342.466 190.66C342.615 190.679 342.767 190.668 342.912 190.627C343.057 190.587 343.192 190.518 343.31 190.424C343.428 190.331 343.526 190.215 343.598 190.083C343.671 189.951 343.716 189.806 343.732 189.656C343.747 189.351 343.643 189.051 343.442 188.821C343.24 188.59 342.958 188.447 342.653 188.42C342.504 188.401 342.352 188.412 342.207 188.453C342.062 188.493 341.927 188.562 341.809 188.656C341.691 188.749 341.593 188.865 341.52 188.997C341.448 189.129 341.403 189.274 341.387 189.424Z" fill="#263238"/>
<path d="M342.061 186.187C342.203 186.344 343.125 185.73 344.384 185.79C345.643 185.85 346.55 186.539 346.692 186.382C346.834 186.224 346.625 186.029 346.235 185.715C345.704 185.314 345.064 185.084 344.399 185.055C343.741 185.022 343.09 185.201 342.541 185.565C342.136 185.835 341.994 186.112 342.061 186.187Z" fill="#263238"/>
<path d="M337.033 195.344C336.377 195.107 335.696 194.951 335.002 194.879C334.68 194.834 334.373 194.752 334.328 194.534C334.32 194.198 334.411 193.867 334.59 193.583C334.935 192.833 335.287 192.017 335.662 191.17C337.16 187.73 338.247 184.898 338.105 184.838C337.962 184.778 336.606 187.521 335.16 190.96L334.126 193.388C333.907 193.769 333.828 194.214 333.901 194.647C333.942 194.763 334.009 194.868 334.097 194.954C334.186 195.04 334.293 195.104 334.41 195.141C334.587 195.202 334.771 195.237 334.957 195.246C335.642 195.369 336.34 195.402 337.033 195.344Z" fill="#263238"/>
<path d="M341.791 182.185C341.941 182.515 343.043 182.185 344.377 182.238C345.71 182.29 346.827 182.53 346.969 182.238C347.029 182.08 346.804 181.788 346.332 181.488C345.728 181.149 345.047 180.974 344.354 180.979C343.666 180.967 342.988 181.14 342.391 181.481C341.934 181.736 341.724 182.028 341.791 182.185Z" fill="#263238"/>
<path d="M329.825 180.155C330.079 180.454 331.136 180.2 332.395 180.245C333.654 180.29 334.703 180.552 334.957 180.245C335.077 180.102 334.957 179.81 334.47 179.495C333.847 179.124 333.135 178.927 332.41 178.926C331.688 178.899 330.971 179.064 330.334 179.405C329.877 179.72 329.72 180.005 329.825 180.155Z" fill="#263238"/>
<path d="M329.03 177.525C329.03 177.525 331.443 172.474 333.983 171.388C337.063 170.076 338.202 173.433 341.102 172.766C344.002 172.099 346.947 170.841 349.772 173.193C352.859 175.764 351.27 177.397 351.308 181.054C351.42 195.891 353.923 200.207 355.055 193.268C355.174 192.519 357.303 192.002 357.782 188.772C358.389 184.606 358.786 179.533 357.992 176.52C357.318 173.98 355.976 172.189 353.496 170.159C349.599 166.966 344.054 166.637 340.263 166.847C336.471 167.056 328.993 171.058 329.03 177.525Z" fill="#263238"/>
<path d="M354.508 193.021C354.534 192.72 354.62 192.428 354.761 192.161C354.902 191.895 355.096 191.659 355.33 191.469C355.564 191.279 355.835 191.138 356.125 191.054C356.414 190.971 356.718 190.946 357.018 190.983C358.516 191.2 360.21 192.151 359.963 195.314C359.521 200.934 353.968 199.33 353.968 199.165C353.968 199 354.298 195.366 354.508 193.021Z" fill="#FFA8A7"/>
<path d="M355.369 197.15C355.369 197.15 355.459 197.225 355.617 197.314C355.73 197.377 355.855 197.416 355.984 197.429C356.112 197.441 356.242 197.428 356.366 197.389C356.746 197.188 357.066 196.888 357.292 196.522C357.519 196.156 357.644 195.737 357.655 195.306C357.706 194.825 357.649 194.339 357.49 193.883C357.452 193.703 357.37 193.536 357.253 193.395C357.135 193.254 356.985 193.143 356.815 193.073C356.705 193.035 356.585 193.037 356.475 193.078C356.366 193.119 356.274 193.197 356.216 193.298C356.126 193.448 356.156 193.56 356.126 193.568C356.096 193.575 356.014 193.463 356.074 193.238C356.116 193.101 356.203 192.982 356.321 192.901C356.486 192.798 356.685 192.763 356.875 192.803C357.101 192.869 357.307 192.99 357.474 193.157C357.64 193.323 357.762 193.529 357.827 193.755C358.027 194.259 358.102 194.804 358.044 195.344C357.917 196.475 357.258 197.487 356.426 197.659C356.272 197.691 356.112 197.688 355.959 197.651C355.806 197.613 355.663 197.542 355.542 197.442C355.362 197.284 355.347 197.157 355.369 197.15Z" fill="#744A45"/>
<path d="M354.935 182.088C354.218 182.616 353.381 182.956 352.499 183.077C352.059 183.123 351.617 183.007 351.255 182.752C350.893 182.498 350.635 182.121 350.529 181.691C350.476 181.294 350.596 180.844 350.356 180.529C350.116 180.215 349.494 180.245 349.015 180.275C348.19 180.299 347.381 180.04 346.725 179.539C346.069 179.038 345.605 178.327 345.411 177.525C345.146 177.793 344.791 177.952 344.414 177.97C344.038 177.988 343.669 177.864 343.38 177.622C342.819 177.122 342.33 176.547 341.926 175.913C341.722 175.596 341.443 175.334 341.114 175.149C340.785 174.965 340.415 174.865 340.038 174.857C339.634 174.97 339.22 175.041 338.802 175.067C338.052 174.969 337.745 174.085 337.67 173.343C337.595 172.601 337.55 171.747 336.921 171.32C336.291 170.893 335.594 171.103 334.905 171.17C334.216 171.238 333.354 171.035 333.211 170.368C333.19 170.188 333.205 170.006 333.256 169.832C333.308 169.658 333.395 169.496 333.511 169.357C334.001 168.7 334.697 168.226 335.488 168.013C336.279 167.799 337.119 167.858 337.872 168.18C338.194 167.257 338.782 166.45 339.562 165.861C340.342 165.272 341.279 164.928 342.254 164.871C343.23 164.814 344.201 165.047 345.044 165.542C345.887 166.036 346.565 166.769 346.992 167.648C347.616 167.13 348.356 166.771 349.15 166.602C349.943 166.433 350.766 166.459 351.547 166.678C352.328 166.897 353.044 167.302 353.634 167.859C354.225 168.415 354.671 169.107 354.935 169.874C355.629 169.735 356.349 169.802 357.006 170.065C357.663 170.329 358.229 170.779 358.634 171.359C359.04 171.94 359.267 172.626 359.289 173.333C359.311 174.041 359.125 174.74 358.756 175.344C359.267 175.628 359.697 176.036 360.006 176.532C360.316 177.027 360.494 177.593 360.525 178.176C360.525 179.345 359.303 180.424 358.194 180.095C358.396 180.563 358.413 181.091 358.24 181.572C358.068 182.052 357.72 182.449 357.267 182.683C356.813 182.917 356.288 182.97 355.797 182.832C355.305 182.694 354.885 182.374 354.62 181.938" fill="#263238"/>
<path d="M337.37 169.844C337.365 169.879 337.365 169.914 337.37 169.949C337.361 170.048 337.361 170.149 337.37 170.249C337.424 170.633 337.543 171.006 337.722 171.35C338.009 171.899 338.416 172.376 338.914 172.744C339.562 173.23 340.351 173.493 341.162 173.493L341.072 173.358C340.878 173.862 340.892 174.423 341.109 174.917C341.336 175.436 341.639 175.919 342.009 176.348C342.185 176.592 342.386 176.818 342.608 177.022C343.011 177.318 343.506 177.461 344.004 177.425C344.502 177.389 344.972 177.178 345.328 176.828L345.118 176.76C345.17 177.348 345.344 177.918 345.629 178.434C345.914 178.95 346.304 179.401 346.774 179.758C347.289 180.177 347.925 180.419 348.588 180.447C349.216 180.447 349.839 180.341 350.431 180.132L350.281 180.057C350.538 180.754 350.969 181.373 351.533 181.856C351.789 182.097 352.095 182.278 352.429 182.387C352.763 182.496 353.117 182.529 353.466 182.485C354.063 182.385 354.618 182.112 355.063 181.701C355.508 181.29 355.822 180.757 355.969 180.17L355.834 180.222C356.411 180.565 357.089 180.697 357.752 180.597C358.249 180.532 358.722 180.347 359.131 180.057C359.389 179.882 359.612 179.661 359.79 179.405C359.851 179.315 359.904 179.22 359.948 179.121C359.707 179.454 359.413 179.745 359.078 179.982C358.674 180.243 358.215 180.407 357.737 180.462C357.107 180.541 356.468 180.407 355.924 180.08L355.826 180.012V180.132C355.681 180.679 355.381 181.172 354.962 181.552C354.543 181.932 354.024 182.183 353.466 182.275C353.148 182.314 352.825 182.282 352.522 182.179C352.218 182.077 351.942 181.907 351.713 181.683C351.185 181.223 350.781 180.638 350.536 179.982V179.87L350.424 179.907C349.86 180.104 349.267 180.206 348.67 180.207C348.053 180.18 347.462 179.954 346.984 179.563C346.542 179.225 346.174 178.799 345.906 178.311C345.638 177.823 345.474 177.285 345.426 176.73V176.46L345.238 176.663C345.027 176.87 344.769 177.023 344.486 177.11C344.203 177.196 343.903 177.212 343.612 177.157C343.339 177.114 343.082 177.004 342.863 176.835C342.652 176.645 342.461 176.434 342.293 176.206C341.937 175.793 341.642 175.331 341.417 174.834C341.212 174.391 341.19 173.885 341.357 173.426L341.409 173.291H341.267C340.483 173.297 339.718 173.05 339.086 172.586C338.601 172.242 338.199 171.794 337.91 171.275C337.651 170.832 337.468 170.348 337.37 169.844Z" fill="#455A64"/>
<path d="M335.594 199.488C335.594 199.54 335.887 199.735 336.456 199.862C337.207 200.005 337.981 199.967 338.714 199.749C339.447 199.531 340.117 199.141 340.667 198.611C341.079 198.199 341.229 197.861 341.184 197.861C341.139 197.861 340.18 198.873 338.577 199.36C336.973 199.847 335.632 199.323 335.594 199.488Z" fill="#263238"/>
<path d="M317.056 291.566L366.879 292.247C366.879 292.247 380.817 286.418 384.646 286.253C388.475 286.088 396.073 286.583 399.587 292.247C403.222 298.1 403.731 308.411 392.529 315.911C381.626 323.21 331.765 329.961 324.931 329.339L312.328 312.427C312.328 312.427 312.2 298.564 312.328 297.905C312.455 297.246 314.576 291.303 314.576 291.303L317.056 291.566Z" fill="#263238"/>
<path d="M344.714 313.971L374.47 325.023L360.929 362.108C357.467 360.609 357.37 338.811 357.37 338.811L338.015 332.517L344.714 313.971Z" fill="#E54646"/>
<g opacity="0.6">
<path d="M359.933 326.762C360.171 326.443 360.519 326.224 360.909 326.147C361.299 326.069 361.704 326.139 362.046 326.342C362.37 326.571 362.594 326.915 362.673 327.303C362.753 327.691 362.681 328.095 362.473 328.433C362.217 328.769 361.846 328.999 361.431 329.078C361.016 329.157 360.586 329.079 360.225 328.86C359.902 328.588 359.699 328.199 359.661 327.778C359.623 327.357 359.753 326.938 360.023 326.612" fill="white"/>
</g>
<path d="M374.47 325.031L371.472 323.914L359.566 359.957C359.566 359.957 359.685 361.876 360.914 362.108L374.47 325.031Z" fill="#263238"/>
<path d="M356.935 339.343C357.123 339.403 357.535 338.534 358.434 337.844C359.333 337.155 360.277 336.968 360.27 336.78C360.262 336.593 359.108 336.473 358.022 337.312C356.935 338.152 356.756 339.321 356.935 339.343Z" fill="#263238"/>
<path d="M357.123 343.824C357.288 343.929 357.872 343.255 358.869 342.925C359.865 342.595 360.735 342.708 360.794 342.52C360.854 342.333 359.873 341.846 358.644 342.288C357.415 342.73 356.95 343.757 357.123 343.824Z" fill="#263238"/>
<path d="M360.974 347.736C361.072 347.586 360.225 346.986 359.093 347.106C357.962 347.226 357.228 347.908 357.355 348.043C357.482 348.178 358.202 347.841 359.153 347.773C360.105 347.706 360.929 347.908 360.974 347.736Z" fill="#263238"/>
<path d="M352.687 337.417C352.882 337.417 352.934 336.481 353.376 335.484C353.818 334.487 354.433 333.805 354.313 333.656C354.193 333.506 353.271 334.038 352.762 335.222C352.252 336.406 352.514 337.455 352.687 337.417Z" fill="#263238"/>
<path d="M348.61 334.952C348.999 334.406 349.23 333.763 349.277 333.094C349.405 332.379 349.446 331.652 349.397 330.928C349.364 330.5 349.304 330.075 349.217 329.654C349.183 329.393 349.104 329.14 348.985 328.905C348.901 328.739 348.764 328.606 348.595 328.527C348.427 328.448 348.237 328.428 348.056 328.47C347.895 328.513 347.747 328.594 347.625 328.706C347.502 328.818 347.408 328.959 347.351 329.115C347.261 329.355 347.205 329.608 347.187 329.864C347.149 330.298 347.149 330.734 347.187 331.168C347.24 331.896 347.407 332.612 347.681 333.288C348.168 334.442 348.738 334.982 348.79 334.929C348.843 334.877 348.468 334.248 348.131 333.131C347.938 332.48 347.828 331.808 347.801 331.13C347.791 330.735 347.813 330.339 347.868 329.946C347.868 329.519 348.026 329.197 348.236 329.145C348.318 329.145 348.348 329.145 348.43 329.265C348.512 329.43 348.567 329.607 348.595 329.789C348.69 330.179 348.758 330.574 348.798 330.973C348.876 331.655 348.889 332.342 348.835 333.026C348.714 333.662 348.638 334.305 348.61 334.952Z" fill="#263238"/>
<path d="M348.94 334.787C348.992 334.735 348.475 334.135 347.329 333.641C346.245 333.189 345.059 333.041 343.897 333.214C343.615 333.223 343.341 333.306 343.101 333.453C342.861 333.6 342.663 333.807 342.526 334.053C342.47 334.22 342.463 334.4 342.505 334.571C342.548 334.742 342.638 334.898 342.766 335.019C342.947 335.194 343.151 335.343 343.372 335.462C343.764 335.676 344.186 335.83 344.624 335.919C345.357 336.071 346.116 336.04 346.834 335.829C348.063 335.454 348.55 334.78 348.498 334.742C347.917 334.98 347.324 335.187 346.722 335.364C346.072 335.492 345.401 335.474 344.759 335.312C344.388 335.221 344.032 335.077 343.702 334.885C343.328 334.69 343.065 334.42 343.155 334.293C343.256 334.164 343.385 334.058 343.531 333.985C343.677 333.911 343.838 333.87 344.002 333.865C344.39 333.797 344.784 333.764 345.178 333.768C345.852 333.782 346.521 333.89 347.164 334.09C348.288 334.435 348.895 334.877 348.94 334.787Z" fill="#263238"/>
<path d="M328.296 313.221L301.642 325.585L316.854 358.833C319.941 357.185 318.45 337.065 318.45 337.065L335.849 329.849L328.296 313.221Z" fill="#E54646"/>
<g opacity="0.6">
<path d="M315.22 326.11C314.975 325.837 314.638 325.663 314.274 325.621C313.909 325.58 313.542 325.674 313.242 325.885C312.958 326.117 312.774 326.45 312.728 326.814C312.682 327.178 312.777 327.545 312.994 327.841C313.254 328.131 313.612 328.316 313.999 328.358C314.386 328.401 314.776 328.3 315.093 328.073C315.358 327.794 315.507 327.424 315.507 327.039C315.507 326.654 315.358 326.284 315.093 326.005" fill="white"/>
</g>
<path d="M301.642 325.57L304.332 324.326L317.94 356.735C317.94 356.735 317.94 358.511 316.854 358.818L301.642 325.57Z" fill="#263238"/>
<path d="M318.862 337.515C318.697 337.582 318.255 336.803 317.363 336.248C316.471 335.694 315.602 335.574 315.595 335.394C315.587 335.214 316.644 335.027 317.7 335.724C318.757 336.421 319.027 337.477 318.862 337.515Z" fill="#263238"/>
<path d="M319.019 341.696C318.877 341.808 318.27 341.231 317.341 340.992C316.411 340.752 315.602 340.932 315.535 340.767C315.467 340.602 316.337 340.077 317.498 340.392C318.659 340.707 319.169 341.584 319.019 341.696Z" fill="#263238"/>
<path d="M315.752 345.555C315.647 345.42 316.352 344.806 317.431 344.806C318.51 344.806 319.214 345.413 319.109 345.555C319.004 345.697 318.315 345.443 317.468 345.443C316.621 345.443 315.842 345.705 315.752 345.555Z" fill="#263238"/>
<path d="M322.646 335.432C322.466 335.432 322.354 334.577 321.897 333.693C321.439 332.809 320.803 332.194 320.9 332.075C320.997 331.955 321.897 332.344 322.444 333.401C322.991 334.457 322.811 335.447 322.646 335.432Z" fill="#263238"/>
<path d="M326.228 332.831C325.831 332.352 325.573 331.775 325.478 331.16C325.307 330.512 325.219 329.845 325.216 329.175C325.209 328.776 325.232 328.378 325.284 327.983C325.304 327.75 325.357 327.52 325.441 327.301C325.504 327.139 325.622 327.005 325.773 326.92C325.925 326.835 326.102 326.806 326.273 326.837C326.423 326.864 326.565 326.928 326.687 327.022C326.808 327.116 326.905 327.237 326.97 327.376C327.069 327.587 327.137 327.812 327.172 328.043C327.244 328.436 327.284 328.835 327.292 329.235C327.295 329.913 327.192 330.589 326.985 331.235C326.625 332.329 326.138 332.876 326.078 332.831C326.018 332.786 326.325 332.179 326.557 331.123C326.688 330.508 326.741 329.878 326.715 329.25C326.699 328.884 326.651 328.52 326.572 328.163C326.505 327.766 326.37 327.466 326.175 327.451C326.1 327.451 326.07 327.451 326.003 327.571C325.94 327.732 325.9 327.901 325.883 328.073C325.831 328.455 325.801 328.822 325.786 329.182C325.767 329.814 325.807 330.446 325.905 331.07C326.056 331.649 326.164 332.237 326.228 332.831Z" fill="#263238"/>
<path d="M325.898 332.704C325.846 332.659 326.28 332.067 327.307 331.528C327.91 331.219 328.561 331.014 329.233 330.921C329.634 330.879 330.038 330.879 330.439 330.921C330.7 330.908 330.959 330.963 331.192 331.082C331.424 331.2 331.622 331.377 331.765 331.595C331.831 331.746 331.852 331.912 331.825 332.074C331.798 332.236 331.726 332.387 331.615 332.509C331.461 332.684 331.282 332.836 331.083 332.959C330.148 333.564 329.011 333.774 327.921 333.543C326.76 333.288 326.258 332.704 326.303 332.667C326.348 332.629 326.932 332.996 327.989 333.116C328.598 333.179 329.213 333.113 329.795 332.921C330.133 332.811 330.454 332.652 330.746 332.449C331.076 332.239 331.301 331.977 331.203 331.857C331.098 331.748 330.971 331.661 330.83 331.605C330.69 331.548 330.538 331.521 330.387 331.528C330.025 331.494 329.661 331.494 329.3 331.528C328.679 331.589 328.068 331.735 327.487 331.962C326.46 332.352 325.965 332.801 325.898 332.704Z" fill="#263238"/>
<path d="M314.576 291.303C314.576 291.303 293.055 283.27 285.134 284.312C280.706 284.889 273.782 288.269 273.257 293.948C272.733 299.628 274.112 307.212 281.77 310.913C289.428 314.615 319.986 328.32 327.247 330.434C334.508 332.547 352.612 337.492 352.612 337.492L359.483 317.89C359.483 317.89 321.964 304.904 319.986 303.48C318.007 302.056 312.987 300.048 312.987 300.048L314.576 291.303Z" fill="#263238"/>
<path d="M389.404 293.971L389.254 293.933L388.827 293.799C388.445 293.686 387.883 293.521 387.149 293.349C386.261 293.131 385.36 292.973 384.451 292.877C383.247 292.765 382.035 292.765 380.832 292.877C379.371 292.998 377.927 293.272 376.523 293.694C375.751 293.93 374.999 294.228 374.275 294.585L371.937 295.724C368.715 297.223 365.118 298.842 361.289 300.355C353.623 303.428 346.265 304.851 341.02 306.073C338.382 306.657 336.254 307.137 334.785 307.481L333.099 307.886L332.657 307.983H332.507L332.65 307.931L333.084 307.811C333.474 307.706 334.036 307.549 334.77 307.369C336.269 306.994 338.352 306.485 340.982 305.87C346.227 304.634 353.563 303.158 361.214 300.093C365.036 298.594 368.633 297.013 371.847 295.485L374.193 294.353C374.935 293.994 375.708 293.698 376.5 293.469C377.917 293.048 379.374 292.779 380.847 292.667C382.06 292.553 383.282 292.553 384.496 292.667C385.409 292.769 386.313 292.94 387.201 293.177C387.95 293.364 388.49 293.544 388.865 293.671L389.292 293.829L389.404 293.971Z" fill="#455A64"/>
<path d="M388.243 291.131C388.243 291.168 387.591 291.056 386.534 290.944C385.163 290.793 383.782 290.753 382.405 290.824C381.027 290.895 379.656 291.075 378.306 291.363C377.272 291.581 376.635 291.768 376.628 291.73C376.762 291.655 376.906 291.597 377.055 291.558C377.34 291.461 377.752 291.333 378.269 291.206C379.619 290.865 381 290.66 382.39 290.591C383.782 290.52 385.177 290.582 386.557 290.779C387.081 290.854 387.508 290.936 387.8 291.004C387.953 291.027 388.101 291.07 388.243 291.131Z" fill="#455A64"/>
<path d="M305.524 296.998C305.524 296.998 304.902 296.564 303.868 295.927C302.525 295.098 301.098 294.415 299.611 293.888C298.12 293.366 296.578 293.002 295.01 292.802C293.812 292.652 293.055 292.637 293.055 292.6C293.231 292.577 293.41 292.577 293.587 292.6C294.07 292.598 294.552 292.62 295.033 292.667C296.619 292.824 298.181 293.169 299.686 293.694C301.191 294.227 302.626 294.941 303.958 295.822C304.363 296.084 304.754 296.369 305.126 296.676C305.271 296.768 305.404 296.876 305.524 296.998Z" fill="#455A64"/>
<path d="M316.321 326.23L316.486 326.29L316.981 326.5C317.408 326.672 318.037 326.972 318.877 327.294C320.555 327.953 323.028 328.867 326.205 329.909C332.567 331.992 341.701 334.637 352.634 337.402L352.507 337.47L359.161 319.006L359.228 319.149L350.986 315.769L305.404 297.036C303.553 295.072 301.844 293.342 300.248 291.948C298.893 290.747 297.444 289.654 295.917 288.681C294.947 288.078 293.946 287.525 292.92 287.025L292.118 286.657L291.848 286.523C291.943 286.555 292.035 286.592 292.126 286.635L292.935 286.987C293.966 287.468 294.967 288.011 295.932 288.613C297.468 289.577 298.926 290.659 300.293 291.85C301.904 293.244 303.628 294.968 305.494 296.931L351.106 315.619L359.348 319.006L359.453 319.051L359.416 319.149C357.04 325.713 354.785 331.955 352.747 337.612V337.702H352.657C341.724 334.93 332.59 332.254 326.243 330.141C323.073 329.085 320.6 328.148 318.929 327.466C318.09 327.129 317.431 326.822 317.041 326.642L316.554 326.417L316.321 326.23Z" fill="#455A64"/>
<path d="M369.502 222.732C369.502 222.732 375.699 226.299 376.958 230.495C377.707 233.035 383.499 265.609 384.451 272.03C385.403 278.452 383.432 283.211 380.704 285.346C377.977 287.482 369.659 290.314 369.659 290.314L357.932 294.098L354.582 285.578L365.703 269.603L364.624 258.842L369.502 222.732Z" fill="#E54646"/>
<path d="M357.325 217.104L352.687 214.444C352.687 214.444 348.445 219.405 342.661 218.798C339.074 218.321 335.794 216.526 333.459 213.762L316.224 217.269C315.07 217.501 312.957 218.236 310.941 221.121C308.693 224.335 298.023 238.595 298.023 238.595H290.492C289.481 238.594 288.489 238.869 287.622 239.391C286.756 239.913 286.049 240.661 285.576 241.555C284.303 243.983 282.774 247.235 282.924 248.584C283.171 250.832 282.736 257.104 285.786 259.074C286.753 259.696 290.215 261.547 292.905 261.42C296.869 261.233 301.47 259.172 304.145 257.314C306.393 255.747 311.638 250.315 313.631 248.194V248.232L314.92 293.469L360.135 292.18L369.502 222.754C369.502 222.754 357.782 217.104 357.325 217.104Z" fill="#E54646"/>
<path d="M313.474 229.221C313.542 229.221 313.654 234.826 313.736 241.742C313.819 248.659 313.834 254.271 313.774 254.271C313.714 254.271 313.586 248.666 313.504 241.75C313.422 234.834 313.414 229.221 313.474 229.221Z" fill="#263238"/>
<path d="M374.979 265.789C374.979 265.789 374.597 265.848 373.915 265.983C372.951 266.176 372.011 266.475 371.113 266.875C369.777 267.469 368.519 268.224 367.366 269.123C365.959 270.224 364.645 271.439 363.44 272.757C362.143 274.151 360.959 275.537 359.85 276.759C358.878 277.857 357.85 278.905 356.771 279.898C356.043 280.569 355.269 281.187 354.455 281.749C354.178 281.952 353.938 282.087 353.781 282.191C353.703 282.244 353.62 282.289 353.533 282.326L353.758 282.146C353.901 282.034 354.133 281.892 354.403 281.674C355.188 281.086 355.938 280.453 356.651 279.779C357.565 278.932 358.591 277.853 359.685 276.616C360.779 275.38 361.933 274.001 363.26 272.6C364.472 271.273 365.799 270.054 367.224 268.958C368.388 268.052 369.662 267.297 371.015 266.71C371.928 266.314 372.888 266.035 373.87 265.878C374.136 265.834 374.403 265.804 374.672 265.789H374.979Z" fill="#263238"/>
<path d="M376.006 262.724C376.006 262.769 375.317 262.866 374.238 263.166C371.422 263.95 368.866 265.471 366.834 267.572C366.085 268.381 365.65 268.943 365.613 268.913C365.682 268.765 365.771 268.627 365.875 268.501C366.133 268.137 366.414 267.789 366.714 267.46C368.712 265.26 371.321 263.708 374.208 263.001C374.639 262.894 375.077 262.814 375.519 262.761C375.679 262.731 375.843 262.718 376.006 262.724Z" fill="#263238"/>
<g opacity="0.3">
<path d="M291.856 254.773C294.246 255.425 297.101 251.978 299.297 249.828C300.428 248.704 301.605 247.505 302.017 245.969C302.313 244.678 302.182 243.326 301.642 242.117C301.24 241.025 300.706 239.986 300.053 239.022C300.256 240.881 300.713 243.728 300.053 246.059C299.441 247.935 298.391 249.638 296.989 251.027C295.602 252.585 293.991 254.219 291.826 254.773" fill="black"/>
</g>
<path d="M302.084 252.818C302.039 252.818 302.316 252.031 302.541 250.727C302.672 249.969 302.747 249.203 302.766 248.434C302.801 246.546 302.505 244.667 301.889 242.881C301.642 242.152 301.339 241.443 300.983 240.761C300.368 239.599 299.866 238.947 299.904 238.917C300.045 239.05 300.17 239.199 300.278 239.36C300.416 239.537 300.543 239.722 300.66 239.914C300.803 240.139 300.975 240.386 301.133 240.663C301.51 241.344 301.834 242.053 302.099 242.784C302.433 243.683 302.684 244.611 302.849 245.557C302.988 246.504 303.046 247.462 303.021 248.419C302.992 249.197 302.902 249.971 302.751 250.734C302.697 251.03 302.627 251.323 302.541 251.611C302.488 251.829 302.423 252.044 302.346 252.256C302.28 252.452 302.192 252.64 302.084 252.818Z" fill="#263238"/>
<path d="M335.325 215.508C335.325 215.568 334.823 215.875 334.268 216.377C333.714 216.88 333.346 217.359 333.286 217.322C333.482 216.895 333.764 216.513 334.115 216.201C334.466 215.888 334.878 215.653 335.325 215.508Z" fill="#263238"/>
<path d="M340.03 218.243C340.075 218.288 339.626 218.783 339.281 219.502C338.936 220.222 338.772 220.873 338.704 220.858C338.713 220.348 338.839 219.847 339.073 219.393C339.307 218.94 339.642 218.546 340.053 218.243H340.03Z" fill="#263238"/>
<path d="M348.086 221.053C347.866 220.623 347.693 220.171 347.569 219.704C347.368 219.267 347.212 218.81 347.104 218.341C347.421 218.717 347.653 219.156 347.786 219.63C347.988 220.077 348.09 220.563 348.086 221.053Z" fill="#263238"/>
<path d="M353.271 218.625C353.196 218.625 353.024 217.876 352.522 217.022C352.02 216.168 351.398 215.658 351.45 215.606C351.991 215.903 352.432 216.354 352.717 216.902C353.065 217.411 353.257 218.009 353.271 218.625Z" fill="#263238"/>
<path d="M368.153 233.275C368.22 233.275 367.449 239.464 366.444 247.078C365.44 254.691 364.571 260.858 364.504 260.843C364.436 260.828 365.208 254.661 366.212 247.048C367.216 239.434 368.093 233.267 368.153 233.275Z" fill="#263238"/>
<path d="M300.398 243.279C300.424 243.493 300.424 243.709 300.398 243.923C300.383 244.175 300.35 244.425 300.301 244.672C300.301 244.815 300.248 244.972 300.226 245.137L300.098 245.646C299.873 246.48 299.575 247.293 299.207 248.074C298.736 249.023 298.179 249.926 297.543 250.772C296.892 251.601 296.151 252.355 295.333 253.02C294.649 253.569 293.893 254.02 293.085 254.361C292.92 254.429 292.755 254.504 292.598 254.556L292.148 254.683L291.751 254.796L291.414 254.841C291.203 254.875 290.99 254.893 290.777 254.893C291.546 254.739 292.299 254.511 293.025 254.211C293.794 253.853 294.514 253.397 295.168 252.855C295.964 252.184 296.688 251.43 297.326 250.607C297.956 249.774 298.511 248.887 298.982 247.954C299.359 247.191 299.667 246.397 299.904 245.579C300.113 244.822 300.278 244.054 300.398 243.279Z" fill="#263238"/>
<g opacity="0.3">
<path d="M366.699 294.99C368.617 294.061 369.052 291.581 369.247 289.46C369.821 283.24 370.396 277.026 370.97 270.817C371.24 267.894 371.368 264.56 369.307 262.469C367.426 260.566 364.436 260.446 361.754 260.453C345.208 260.506 330.604 260.985 314.059 261.03L314.898 289.992L366.699 294.99Z" fill="black"/>
</g>
<path d="M306.925 265.519L308.686 299.081C308.722 299.709 308.999 300.298 309.457 300.728C309.916 301.157 310.523 301.394 311.151 301.389L364.616 301.487C365.246 301.49 365.852 301.25 366.31 300.817C366.768 300.385 367.041 299.793 367.074 299.164L369.12 266.193C369.187 264.822 368.213 263.001 366.819 262.971H309.435C309.1 262.961 308.766 263.021 308.455 263.146C308.143 263.271 307.861 263.459 307.625 263.698C307.39 263.937 307.206 264.222 307.086 264.536C306.965 264.849 306.91 265.183 306.925 265.519Z" fill="#E0E0E0"/>
<path d="M306.925 265.519C306.925 265.519 306.925 265.474 306.925 265.391C306.925 265.309 306.925 265.182 306.925 265.017C306.996 264.526 307.219 264.07 307.562 263.713C307.809 263.443 308.114 263.233 308.454 263.098C308.867 262.952 309.305 262.891 309.742 262.919H312.994L333.714 262.881H364.436H366.617C367.007 262.863 367.393 262.962 367.726 263.166C368.049 263.373 368.327 263.643 368.543 263.96C368.975 264.6 369.207 265.354 369.209 266.126C369.164 266.875 369.127 267.624 369.082 268.374C368.897 271.371 368.707 274.451 368.513 277.613C368.123 283.892 367.718 290.397 367.306 297.058L367.231 298.302C367.218 298.723 367.183 299.143 367.126 299.561C367.042 299.988 366.849 300.386 366.567 300.718C366.285 301.05 365.923 301.304 365.515 301.457C365.114 301.596 364.688 301.652 364.264 301.622H360.585H350.986H332.837L316.419 301.577H311.706C311.398 301.577 311.091 301.577 310.776 301.577C310.158 301.489 309.593 301.179 309.188 300.704C308.782 300.23 308.564 299.623 308.573 298.999C308.543 298.414 308.513 297.837 308.483 297.268C308.424 296.122 308.371 295.02 308.311 293.911C307.869 285.181 307.509 278.115 307.262 273.222C307.142 270.787 307.052 268.891 306.992 267.602C306.992 266.957 306.94 266.47 306.925 266.103C306.91 265.736 306.925 265.609 306.925 265.609C306.925 265.609 306.925 265.774 306.962 266.103C307 266.433 307.015 266.928 307.052 267.564C307.127 268.861 307.232 270.749 307.367 273.192C307.637 278.078 308.019 285.181 308.491 293.874C308.551 294.968 308.611 296.084 308.671 297.231C308.701 297.8 308.731 298.377 308.761 298.962C308.755 299.538 308.954 300.099 309.323 300.543C309.703 300.993 310.237 301.287 310.821 301.367C311.123 301.382 311.426 301.382 311.728 301.367H316.441H332.859H351.008H360.607H364.286C364.671 301.399 365.059 301.353 365.425 301.232C365.802 301.097 366.138 300.868 366.4 300.566C366.663 300.265 366.843 299.9 366.924 299.509C366.991 299.126 366.991 298.692 367.021 298.287L367.104 297.036C367.516 290.382 367.913 283.877 368.303 277.598C368.498 274.456 368.69 271.374 368.88 268.351L369.015 266.103C369.012 265.376 368.793 264.667 368.385 264.065C368.208 263.76 367.953 263.508 367.646 263.334C367.339 263.16 366.992 263.071 366.639 263.076H364.451H333.729H313.009H309.757C309.328 263.039 308.896 263.095 308.491 263.241C308.156 263.366 307.854 263.566 307.607 263.825C307.267 264.177 307.042 264.624 306.962 265.107C306.917 265.346 306.977 265.519 306.925 265.519Z" fill="#263238"/>
<path d="M341.567 281.892C341.569 282.518 341.386 283.131 341.04 283.652C340.693 284.174 340.199 284.58 339.621 284.82C339.042 285.06 338.406 285.123 337.792 285C337.178 284.877 336.614 284.573 336.173 284.129C335.732 283.685 335.433 283.119 335.314 282.504C335.196 281.89 335.263 281.253 335.507 280.677C335.751 280.1 336.161 279.609 336.685 279.266C337.209 278.924 337.823 278.745 338.449 278.752C339.278 278.76 340.069 279.094 340.653 279.682C341.236 280.269 341.565 281.063 341.567 281.892Z" fill="white"/>
<path d="M341.567 281.892C341.567 281.892 341.567 281.607 341.424 281.142C341.313 280.728 341.117 280.342 340.848 280.007C340.58 279.673 340.244 279.399 339.863 279.201C339.483 279.004 339.065 278.888 338.637 278.861C338.209 278.834 337.78 278.896 337.378 279.044C336.815 279.251 336.327 279.621 335.977 280.108C335.589 280.626 335.38 281.256 335.38 281.903C335.38 282.55 335.589 283.179 335.977 283.698C336.327 284.184 336.815 284.555 337.378 284.762C337.78 284.907 338.209 284.968 338.636 284.94C339.063 284.911 339.48 284.795 339.86 284.598C340.24 284.401 340.575 284.127 340.845 283.794C341.114 283.461 341.311 283.076 341.424 282.663C341.552 282.184 341.544 281.914 341.567 281.914C341.578 281.981 341.578 282.05 341.567 282.116C341.564 282.311 341.541 282.504 341.499 282.693C341.337 283.402 340.935 284.032 340.36 284.477C339.965 284.791 339.5 285.005 339.004 285.099C338.433 285.208 337.844 285.164 337.295 284.971C336.694 284.752 336.172 284.358 335.797 283.84C335.384 283.281 335.161 282.605 335.161 281.91C335.161 281.216 335.384 280.539 335.797 279.981C336.172 279.463 336.694 279.069 337.295 278.849C337.844 278.656 338.433 278.612 339.004 278.722C339.608 278.841 340.165 279.131 340.608 279.56C341.051 279.988 341.36 280.535 341.499 281.135C341.541 281.324 341.564 281.518 341.567 281.712C341.575 281.771 341.575 281.832 341.567 281.892Z" fill="#263238"/>
<path d="M308.731 269.235C308.791 269.235 309.053 274.87 309.315 281.832C309.577 288.793 309.735 294.435 309.675 294.435C309.615 294.435 309.345 288.801 309.083 281.839C308.821 274.878 308.663 269.235 308.731 269.235Z" fill="#263238"/>
<path d="M292.658 225.437C292.343 225.175 293.714 219.899 293.714 219.899C293.714 219.899 290.087 213.98 289.967 212.076C289.848 210.173 291.399 206.254 291.399 206.254L301.807 203.579C301.807 203.579 305.149 209.783 305.816 211.979C306.483 214.174 304.729 221.623 304.729 221.623L302.968 225.437C302.968 225.437 297.611 229.641 292.658 225.437Z" fill="#FFA8A7"/>
<path d="M290.012 213.215C289.6 212.468 289.232 211.698 288.911 210.907C288.259 209.341 287.45 207.813 288.911 206.936C289.141 206.786 289.4 206.687 289.671 206.644C289.942 206.601 290.22 206.617 290.485 206.689C290.485 206.689 290.26 205.377 291.039 204.883C291.267 204.739 291.526 204.652 291.795 204.628C292.063 204.605 292.333 204.646 292.583 204.748C292.583 204.748 292.335 202.889 293.467 202.103C293.894 201.825 294.389 201.67 294.898 201.655C295.407 201.641 295.91 201.767 296.352 202.02C296.352 202.02 295.453 193.905 295.378 193.47C295.093 191.897 295.677 190.473 297.244 190.885C297.821 191.028 298.143 191.634 298.817 194.28C299.492 196.925 300.578 201.436 300.578 201.436C300.578 201.436 302.406 204.613 303.268 206.336C304.13 208.06 305.838 211.979 305.981 213.02C306.348 215.703 304.774 219.262 304.774 219.262L293.714 219.899C293.714 219.899 290.432 213.987 290.012 213.215Z" fill="#FFA8A7"/>
<path d="M290.702 207.041C291.015 207.417 291.3 207.815 291.556 208.232L292.433 209.566C292.613 209.83 292.771 210.108 292.905 210.398C293.06 210.727 293.107 211.097 293.04 211.454C293.005 211.641 292.922 211.814 292.798 211.958C292.674 212.101 292.514 212.209 292.335 212.271C292.002 212.356 291.649 212.313 291.346 212.151C291.083 212.022 290.832 211.869 290.597 211.694L289.997 211.245C289.638 210.967 289.36 210.727 289.173 210.555C288.986 210.383 288.888 210.278 288.896 210.263C288.903 210.248 289.361 210.593 290.095 211.117C290.515 211.43 290.958 211.711 291.421 211.956C291.678 212.088 291.973 212.122 292.253 212.054C292.393 212.004 292.518 211.917 292.613 211.802C292.708 211.688 292.77 211.549 292.792 211.402C292.852 211.093 292.813 210.773 292.68 210.488C292.555 210.206 292.407 209.936 292.238 209.678L291.421 208.315C291.147 207.911 290.906 207.484 290.702 207.041Z" fill="#744A45"/>
<path d="M299.769 208.007C299.672 207.427 299.713 206.831 299.889 206.269C299.989 205.688 300.225 205.138 300.578 204.665C300.638 204.665 300.331 205.415 300.113 206.321C299.896 207.228 299.836 208.007 299.769 208.007Z" fill="#744A45"/>
<path d="M304.152 210.375C303.134 209.389 301.85 208.72 300.458 208.45C299.068 208.181 297.646 208.125 296.239 208.285C295.115 208.39 293.834 208.674 293.317 209.686C293.104 210.235 293.1 210.842 293.304 211.395C293.508 211.947 293.907 212.405 294.426 212.683C295.474 213.203 296.658 213.384 297.813 213.2C298.962 213.011 300.129 212.963 301.29 213.058" fill="#FFA8A7"/>
<path d="M301.29 213.028C301.29 213.028 300.975 213.028 300.421 213.028C299.625 213.06 298.832 213.135 298.045 213.253C297.496 213.318 296.942 213.341 296.389 213.32C295.741 213.297 295.105 213.136 294.523 212.848C293.873 212.511 293.377 211.937 293.137 211.245C293.012 210.873 292.986 210.475 293.062 210.091C293.151 209.695 293.364 209.338 293.669 209.072C294.282 208.592 295.022 208.303 295.797 208.24C296.494 208.162 297.194 208.119 297.895 208.112C299.091 208.093 300.282 208.275 301.417 208.652C302.179 208.906 302.891 209.288 303.523 209.783C303.694 209.921 303.856 210.069 304.01 210.225C304.062 210.279 304.11 210.336 304.152 210.398C304.152 210.398 303.928 210.188 303.47 209.858C302.829 209.397 302.118 209.04 301.365 208.802C300.243 208.462 299.075 208.302 297.903 208.33C297.209 208.339 296.516 208.384 295.827 208.465C295.102 208.515 294.407 208.775 293.827 209.214C293.556 209.449 293.368 209.764 293.287 210.113C293.219 210.455 293.243 210.809 293.354 211.14C293.569 211.783 294.022 212.32 294.621 212.638C295.173 212.918 295.778 213.076 296.397 213.103C296.941 213.136 297.488 213.124 298.03 213.065C298.823 212.963 299.621 212.91 300.421 212.908C300.637 212.919 300.852 212.942 301.065 212.976C301.142 212.981 301.218 212.998 301.29 213.028Z" fill="#744A45"/>
<path d="M290.784 207.168C291.946 208.937 292.972 210.877 293.954 212.751C294.187 213.324 294.57 213.823 295.063 214.197C295.483 214.452 296.524 213.987 296.989 213.822L293.797 206.554" fill="#FFA8A7"/>
<path d="M293.797 206.554C293.908 206.724 294.003 206.905 294.081 207.093L294.786 208.592C295.378 209.888 296.187 211.694 297.094 213.747L297.146 213.86L297.026 213.905C296.681 214.025 296.277 214.182 295.91 214.287C295.751 214.329 295.587 214.351 295.423 214.354C295.336 214.365 295.247 214.365 295.16 214.354C295.075 214.327 294.994 214.286 294.921 214.234C294.665 214.047 294.446 213.813 294.276 213.545C293.946 213.028 293.714 212.511 293.459 212.046C292.957 211.08 292.493 210.21 292.096 209.491C291.698 208.772 291.346 208.195 291.129 207.798C290.999 207.599 290.883 207.391 290.784 207.176C290.939 207.357 291.079 207.55 291.204 207.753C291.466 208.135 291.826 208.697 292.238 209.409C292.65 210.121 293.137 210.982 293.647 211.949C293.909 212.421 294.156 212.953 294.463 213.448C294.619 213.691 294.82 213.902 295.055 214.07C295.25 214.234 295.565 214.174 295.857 214.107C296.228 214.004 296.593 213.881 296.951 213.74L296.884 213.897C295.985 211.837 295.198 210.016 294.636 208.704C294.374 208.075 294.164 207.55 293.991 207.153C293.907 206.96 293.842 206.759 293.797 206.554Z" fill="#744A45"/>
<path d="M292.935 204.396L296.015 212.121C296.201 212.682 296.482 213.207 296.846 213.672C297.029 213.904 297.266 214.087 297.537 214.205C297.808 214.323 298.103 214.371 298.397 214.347C298.791 214.243 299.138 214.012 299.385 213.689C299.632 213.366 299.765 212.97 299.761 212.563C299.74 211.749 299.543 210.949 299.184 210.218C298.251 207.869 297.5 205.451 296.936 202.987" fill="#FFA8A7"/>
<path d="M296.974 202.987C297.011 203.063 297.038 203.144 297.056 203.227C297.101 203.406 297.161 203.631 297.236 203.909C297.393 204.501 297.626 205.355 297.985 206.404C298.345 207.453 298.735 208.689 299.259 210.038C299.587 210.737 299.804 211.483 299.904 212.249C299.938 212.669 299.858 213.091 299.671 213.47C299.484 213.881 299.15 214.207 298.735 214.384C298.525 214.461 298.301 214.491 298.079 214.473C297.856 214.455 297.64 214.389 297.446 214.279C297.072 214.076 296.757 213.779 296.532 213.418C296.165 212.745 295.855 212.043 295.602 211.319L294.194 207.73L293.242 205.317C293.145 205.048 293.07 204.83 293.002 204.658C292.97 204.581 292.947 204.5 292.935 204.418C292.981 204.486 293.019 204.559 293.047 204.635L293.332 205.287L294.329 207.685C294.741 208.712 295.235 209.933 295.782 211.26C296.032 211.971 296.34 212.66 296.704 213.32C296.908 213.638 297.192 213.896 297.528 214.07C297.694 214.164 297.878 214.222 298.068 214.238C298.258 214.255 298.45 214.231 298.63 214.167C298.986 214.011 299.272 213.728 299.432 213.373C299.598 213.025 299.673 212.641 299.649 212.256C299.551 211.515 299.341 210.792 299.027 210.113C298.51 208.757 298.105 207.505 297.798 206.449C297.491 205.392 297.281 204.53 297.146 203.931C297.086 203.631 297.034 203.392 297.011 203.234C296.99 203.153 296.977 203.07 296.974 202.987Z" fill="#744A45"/>
<path d="M293.182 222.552C293.182 222.552 286.123 243.346 285.846 244.365C285.569 245.384 287.24 252.818 290.305 254.578C293.369 256.339 299.297 249.011 300.046 246.336C300.795 243.661 300.046 239.097 300.046 239.097L304.804 221.181" fill="#FFA8A7"/>
<path d="M300.053 219.277C299.828 219.308 299.598 219.28 299.387 219.195C298.866 219.03 298.388 218.754 297.985 218.385C297.583 218.016 297.266 217.564 297.056 217.059C296.955 216.855 296.907 216.628 296.914 216.4C297.176 217.092 297.596 217.712 298.141 218.212C298.687 218.712 299.342 219.077 300.053 219.277Z" fill="#744A45"/>
<path d="M507.143 235.291L477.076 265.358M507.143 265.358L477.076 235.291" stroke="#E54646" strokeWidth="9"/>
<path d="M445.698 209.813L415.631 239.88M445.698 239.88L415.631 209.813" stroke="#E54646" strokeWidth="9"/>
</svg>
