<svg width="301" height="293" viewBox="0 0 301 293" fill="none" xmlns="http://www.w3.org/2000/svg">
<g clipPath="url(#clip0_1058_16397)">
<path d="M190.952 65.9395H110.115C108.273 65.9418 106.507 66.6746 105.205 67.9771C103.902 69.2797 103.169 71.0458 103.167 72.8879V252.549L102.241 252.831L82.4099 258.904C81.4701 259.191 80.455 259.093 79.5874 258.632C78.7198 258.171 78.0707 257.384 77.7825 256.445L18.7955 63.767C18.5084 62.8272 18.6063 61.8118 19.0675 60.9441C19.5287 60.0764 20.3156 59.4272 21.2552 59.1394L51.8142 49.7823L140.406 22.6652L170.964 13.3081C171.429 13.165 171.918 13.115 172.402 13.161C172.887 13.2069 173.357 13.348 173.787 13.576C174.217 13.804 174.598 14.1146 174.907 14.4899C175.217 14.8652 175.45 15.2979 175.592 15.7632L190.67 65.0131L190.952 65.9395Z" fill="#F2F2F2"/>
<path d="M208.592 65.0131L190.42 5.65566C190.117 4.66666 189.623 3.74692 188.965 2.949C188.307 2.15109 187.498 1.49064 186.585 1.0054C185.672 0.520152 184.672 0.219615 183.643 0.120973C182.613 0.0223299 181.574 0.127514 180.585 0.430504L137.621 13.5814L49.0349 40.7031L6.07092 53.8587C4.07504 54.4715 2.40387 55.8512 1.42421 57.695C0.444562 59.5387 0.23647 61.6959 0.845623 63.6929L62.9546 266.552C63.4494 268.164 64.4479 269.575 65.8035 270.578C67.1591 271.581 68.8005 272.123 70.4867 272.125C71.2672 272.125 72.0432 272.008 72.7888 271.777L102.241 262.763L103.167 262.476V261.508L102.241 261.79L72.5156 270.893C70.7539 271.43 68.8511 271.246 67.2245 270.382C65.5981 269.518 64.3807 268.044 63.8394 266.283L1.7352 63.4196C1.46704 62.5473 1.37357 61.6307 1.46016 60.7222C1.54675 59.8138 1.81168 58.9313 2.2398 58.1254C2.66792 57.3194 3.25082 56.6059 3.9551 56.0256C4.65939 55.4452 5.47122 55.0095 6.34413 54.7434L49.3081 41.5879L137.895 14.4708L180.859 1.31527C181.521 1.11321 182.209 1.01019 182.902 1.00954C184.387 1.01288 185.833 1.49183 187.026 2.37624C188.22 3.26066 189.099 4.50407 189.535 5.92434L207.624 65.0131L207.911 65.9395H208.875L208.592 65.0131Z" fill="#3F3D56"/>
<path d="M57.3286 59.2908C56.4358 59.2902 55.5667 59.0034 54.8488 58.4727C54.1309 57.9419 53.602 57.195 53.3397 56.3416L47.3732 36.853C47.2128 36.3295 47.1572 35.7795 47.2094 35.2345C47.2617 34.6895 47.4208 34.1602 47.6776 33.6767C47.9345 33.1932 48.2841 32.765 48.7064 32.4166C49.1288 32.0682 49.6156 31.8065 50.1392 31.6462L131.638 6.69531C132.695 6.37269 133.837 6.48272 134.814 7.00125C135.79 7.51978 136.521 8.40445 136.845 9.46108L142.812 28.9499C143.134 30.0072 143.024 31.1491 142.505 32.1253C141.987 33.1015 141.102 33.8321 140.046 34.1569L58.5466 59.1078C58.152 59.2289 57.7415 59.2906 57.3286 59.2908Z" fill="#F40000"/>
<path d="M88.5836 20.9053C93.7002 20.9053 97.848 16.7575 97.848 11.6409C97.848 6.52424 93.7002 2.3764 88.5836 2.3764C83.4669 2.3764 79.3191 6.52424 79.3191 11.6409C79.3191 16.7575 83.4669 20.9053 88.5836 20.9053Z" fill="#F40000"/>
<path d="M88.5836 17.5074C91.8236 17.5074 94.4501 14.8809 94.4501 11.6409C94.4501 8.40089 91.8236 5.77435 88.5836 5.77435C85.3436 5.77435 82.717 8.40089 82.717 11.6409C82.717 14.8809 85.3436 17.5074 88.5836 17.5074Z" fill="white"/>
<path d="M279.655 269.758H123.086C122.042 269.756 121.041 269.341 120.303 268.603C119.565 267.865 119.149 266.864 119.148 265.82V78.2149C119.149 77.171 119.565 76.1701 120.303 75.432C121.041 74.6938 122.042 74.2786 123.086 74.2775H279.655C280.699 74.2787 281.7 74.6939 282.438 75.432C283.176 76.1702 283.591 77.171 283.592 78.2149V265.82C283.591 266.864 283.176 267.865 282.438 268.603C281.7 269.341 280.699 269.756 279.655 269.758Z" fill="#E6E6E6"/>
<path d="M207.624 65.0131H110.115C108.028 65.016 106.026 65.8466 104.55 67.3228C103.074 68.799 102.243 70.8002 102.24 72.8879V261.79L103.167 261.508V72.8879C103.169 71.0457 103.902 69.2797 105.205 67.9771C106.507 66.6745 108.273 65.9417 110.115 65.9395H207.911L207.624 65.0131ZM292.625 65.0131H110.115C108.028 65.016 106.026 65.8466 104.55 67.3228C103.074 68.799 102.243 70.8002 102.24 72.8879V285.044C102.243 287.132 103.074 289.133 104.55 290.609C106.026 292.085 108.028 292.916 110.115 292.919H292.625C294.713 292.916 296.714 292.085 298.19 290.609C299.666 289.133 300.497 287.132 300.5 285.044V72.8879C300.497 70.8002 299.666 68.799 298.19 67.3228C296.714 65.8466 294.713 65.016 292.625 65.0131ZM299.573 285.044C299.571 286.886 298.838 288.652 297.536 289.955C296.233 291.257 294.467 291.99 292.625 291.992H110.115C108.273 291.99 106.507 291.257 105.205 289.955C103.902 288.652 103.169 286.886 103.167 285.044V72.8879C103.169 71.0457 103.902 69.2797 105.205 67.9771C106.507 66.6745 108.273 65.9417 110.115 65.9395H292.625C294.467 65.9417 296.233 66.6745 297.536 67.9771C298.838 69.2797 299.571 71.0457 299.573 72.8879V285.044Z" fill="#3F3D56"/>
<path d="M243.987 85.3949H158.754C157.649 85.3936 156.589 84.954 155.807 84.1724C155.026 83.3909 154.586 82.3312 154.585 81.2259V60.8441C154.586 59.7387 155.026 58.6791 155.807 57.8975C156.589 57.1159 157.649 56.6763 158.754 56.675H243.987C245.092 56.6763 246.152 57.1159 246.934 57.8975C247.715 58.6791 248.155 59.7387 248.156 60.8441V81.2259C248.155 82.3312 247.715 83.3909 246.934 84.1724C246.152 84.954 245.092 85.3936 243.987 85.3949Z" fill="#F40000"/>
<path d="M201.37 58.0647C206.487 58.0647 210.635 53.9168 210.635 48.8002C210.635 43.6836 206.487 39.5358 201.37 39.5358C196.254 39.5358 192.106 43.6836 192.106 48.8002C192.106 53.9168 196.254 58.0647 201.37 58.0647Z" fill="#F40000"/>
<path d="M201.37 54.4432C204.487 54.4432 207.013 51.9168 207.013 48.8003C207.013 45.6838 204.487 43.1573 201.37 43.1573C198.254 43.1573 195.727 45.6838 195.727 48.8003C195.727 51.9168 198.254 54.4432 201.37 54.4432Z" fill="white"/>
</g>
<defs>
<clipPath id="clip0_1058_16397">
<rect width="300" height="292.837" fill="white" transform="translate(0.5 0.0812988)"/>
</clipPath>
</defs>
</svg>
