<svg width="200" height="176" viewBox="0 0 200 176" fill="none" xmlns="http://www.w3.org/2000/svg">
<g clipPath="url(#clip0_530_4568)">
<path d="M198.406 173.244C198.057 173.732 197.704 174.217 197.355 174.699C196.35 175.39 195.159 175.76 193.939 175.757H6.06057C4.89536 175.758 3.75486 175.422 2.77715 174.788C2.45267 174.36 2.13185 173.928 1.80737 173.497L2.13185 173.319L97.2442 120.599C98.0881 120.132 99.0364 119.887 100.001 119.885C100.965 119.884 101.914 120.127 102.759 120.592L198.085 173.066L198.406 173.244Z" fill="#E54646"/>
<path d="M193.939 62.3888L111.509 14.7844C108.042 12.7821 104.109 11.7271 100.105 11.7251C96.1016 11.7231 92.1678 12.7743 88.6988 14.7731L6.06061 62.3888C4.45393 62.391 2.91372 63.0303 1.77762 64.1664C0.641533 65.3025 0.00227287 66.8427 0 68.4494V169.697C0.00187195 171.304 0.641 172.844 1.77718 173.981C2.91336 175.117 4.45381 175.756 6.06061 175.758H193.939C195.546 175.755 197.086 175.116 198.222 173.98C199.358 172.844 199.997 171.304 200 169.697V68.4494C199.998 66.8427 199.358 65.3025 198.222 64.1664C197.086 63.0303 195.546 62.391 193.939 62.3888ZM199.287 169.697C199.284 171.114 198.719 172.473 197.717 173.475C196.715 174.477 195.357 175.041 193.939 175.045H6.06061C4.64312 175.042 3.28442 174.478 2.28211 173.476C1.27979 172.473 0.715563 171.115 0.713012 169.697V68.4494C0.714737 67.0316 1.2787 65.6725 2.28119 64.67C3.28369 63.6675 4.64287 63.1035 6.06061 63.1018L88.6988 15.4861C92.1678 13.4873 96.1016 12.4361 100.105 12.4381C104.109 12.4401 108.042 13.4951 111.509 15.4974L193.939 63.1018C195.357 63.1035 196.716 63.6675 197.719 64.67C198.721 65.6725 199.285 67.0316 199.287 68.4494V169.697Z" fill="#3F3D56"/>
<path d="M100.107 119.672C99.4859 119.674 98.8692 119.571 98.2829 119.366L98.1751 119.328L98.1532 119.088C98.0861 119.121 98.0182 119.153 97.9504 119.183L97.8786 119.214L97.8068 119.183C97.6566 119.117 97.5074 119.042 97.3635 118.961L31.729 82.0793V6.77359C31.731 5.02499 32.4265 3.34857 33.6629 2.11213C34.8994 0.875683 36.5758 0.180185 38.3244 0.178223H161.676C163.424 0.180185 165.101 0.875683 166.337 2.11213C167.573 3.34857 168.269 5.02499 168.271 6.77359V82.1755L168.18 82.2267L102.85 118.961C102.012 119.429 101.067 119.673 100.107 119.672Z" fill="white"/>
<path d="M100.107 119.85C99.4658 119.852 98.829 119.746 98.2238 119.534L98.0079 119.458L97.9987 119.356L97.8786 119.409L97.7352 119.346C97.5795 119.278 97.4251 119.2 97.276 119.116L31.5508 82.1837V6.77362C31.5528 4.97777 32.2671 3.25605 33.537 1.98619C34.8068 0.716334 36.5285 0.00203247 38.3244 0H161.676C163.471 0.00204001 165.193 0.716341 166.463 1.9862C167.733 3.25606 168.447 4.97777 168.449 6.77362V82.2798L102.938 119.116C102.072 119.599 101.098 119.852 100.107 119.85ZM98.676 118.932C99.9867 119.308 101.393 119.151 102.588 118.495L167.736 81.8627V6.77362C167.734 5.1668 167.095 3.62631 165.959 2.49012C164.823 1.35393 163.282 0.714821 161.676 0.713012H38.3244C36.7176 0.714814 35.1771 1.35392 34.0409 2.49011C32.9047 3.62631 32.2656 5.1668 32.2638 6.77362V81.7663L36.5382 84.1668L97.6257 118.495C97.7088 118.542 97.7932 118.586 97.8788 118.627C97.9644 118.586 98.0487 118.542 98.1316 118.495L98.6117 118.225L98.676 118.932Z" fill="#3F3D56"/>
<path d="M198.421 65.0196L172.549 79.565L168.093 82.0713L102.763 118.806C101.951 119.258 101.037 119.495 100.107 119.494C99.5062 119.496 98.9095 119.395 98.3423 119.198C98.1845 119.147 98.0297 119.088 97.8787 119.02C97.7327 118.955 97.5901 118.884 97.451 118.806L36.3636 84.4777L31.9073 81.975L1.63283 64.9625C1.55051 64.9153 1.49012 64.8376 1.46477 64.7462C1.43941 64.6547 1.45113 64.557 1.4974 64.4741C1.54378 64.3919 1.62089 64.3315 1.71178 64.3061C1.80267 64.2807 1.89992 64.2924 1.9822 64.3387L31.9073 81.1551L36.3636 83.6577L97.8004 118.182C98.0042 118.296 98.2163 118.395 98.4349 118.478C98.5277 118.513 98.6239 118.545 98.7202 118.574C99.3304 118.761 99.9722 118.823 100.607 118.756C101.242 118.688 101.856 118.493 102.414 118.182L168.093 81.2549L172.549 78.7486L198.071 64.3993C198.112 64.3763 198.157 64.3616 198.203 64.356C198.25 64.3504 198.297 64.354 198.342 64.3666C198.387 64.3792 198.429 64.4005 198.466 64.4293C198.502 64.4582 198.533 64.494 198.556 64.5347C198.579 64.5755 198.594 64.6203 198.599 64.6667C198.605 64.7131 198.601 64.7602 198.589 64.8052C198.576 64.8502 198.555 64.8923 198.526 64.9291C198.497 64.9659 198.461 64.9966 198.421 65.0196Z" fill="#3F3D56"/>
<path d="M58.4936 23.5293H48.5115C47.7551 23.5293 47.0296 23.2288 46.4948 22.694C45.9599 22.1591 45.6594 21.4337 45.6594 20.6772C45.6594 19.9208 45.9599 19.1954 46.4948 18.6605C47.0296 18.1257 47.7551 17.8252 48.5115 17.8252H58.4936C59.2501 17.8252 59.9755 18.1257 60.5104 18.6605C61.0452 19.1954 61.3457 19.9208 61.3457 20.6772C61.3457 21.4337 61.0452 22.1591 60.5104 22.694C59.9755 23.2288 59.2501 23.5293 58.4936 23.5293Z" fill="#E54646"/>
<path d="M70.2584 33.1553H48.5115C47.7551 33.1553 47.0296 32.8548 46.4948 32.3199C45.9599 31.7851 45.6594 31.0596 45.6594 30.3032C45.6594 29.5468 45.9599 28.8214 46.4948 28.2865C47.0296 27.7517 47.7551 27.4512 48.5115 27.4512H70.2584C71.0148 27.4512 71.7402 27.7517 72.275 28.2865C72.8099 28.8214 73.1104 29.5468 73.1104 30.3032C73.1104 31.0596 72.8099 31.7851 72.275 32.3199C71.7402 32.8548 71.0148 33.1553 70.2584 33.1553Z" fill="#E6E6E6"/>
<path d="M131.016 58.8237H69.3406C68.5842 58.8237 67.8587 58.5232 67.3239 57.9884C66.789 57.4535 66.4885 56.7281 66.4885 55.9717C66.4885 55.2153 66.789 54.4898 67.3239 53.955C67.8587 53.4201 68.5842 53.1196 69.3406 53.1196H131.016C131.773 53.1196 132.498 53.4201 133.033 53.955C133.568 54.4898 133.868 55.2153 133.868 55.9717C133.868 56.7281 133.568 57.4535 133.033 57.9884C132.498 58.5232 131.773 58.8237 131.016 58.8237Z" fill="#E54646"/>
<path d="M136.72 69.875H63.2798C62.5234 69.875 61.7979 69.5745 61.2631 69.0397C60.7282 68.5048 60.4277 67.7794 60.4277 67.0229C60.4277 66.2665 60.7282 65.5411 61.2631 65.0062C61.7979 64.4714 62.5234 64.1709 63.2798 64.1709H136.72C137.476 64.1709 138.202 64.4714 138.737 65.0062C139.272 65.5411 139.572 66.2665 139.572 67.0229C139.572 67.7794 139.272 68.5048 138.737 69.0397C138.202 69.5745 137.476 69.875 136.72 69.875Z" fill="#E6E6E6"/>
<path d="M136.72 80.5703H63.2798C62.5234 80.5703 61.7979 80.2698 61.2631 79.735C60.7282 79.2001 60.4277 78.4747 60.4277 77.7183C60.4277 76.9619 60.7282 76.2364 61.2631 75.7016C61.7979 75.1667 62.5234 74.8662 63.2798 74.8662H136.72C137.476 74.8662 138.202 75.1667 138.737 75.7016C139.272 76.2364 139.572 76.9619 139.572 77.7183C139.572 78.4747 139.272 79.2001 138.737 79.735C138.202 80.2698 137.476 80.5703 136.72 80.5703Z" fill="#E6E6E6"/>
</g>
<defs>
<clipPath id="clip0_530_4568">
<rect width="200" height="175.758" fill="white"/>
</clipPath>
</defs>
</svg>
