<svg width="129" height="35" viewBox="0 0 129 35" fill="none" xmlns="http://www.w3.org/2000/svg">
<path d="M8.708 27.78C7.196 27.78 5.73067 27.5653 4.312 27.136C2.912 26.7067 1.80133 26.1373 0.98 25.428L2.24 22.6C3.04267 23.2347 4.02267 23.7573 5.18 24.168C6.356 24.56 7.532 24.756 8.708 24.756C10.164 24.756 11.2467 24.5227 11.956 24.056C12.684 23.5893 13.048 22.9733 13.048 22.208C13.048 21.648 12.8427 21.1907 12.432 20.836C12.04 20.4627 11.536 20.1733 10.92 19.968C10.304 19.7627 9.464 19.5293 8.4 19.268C6.90667 18.9133 5.69333 18.5587 4.76 18.204C3.84533 17.8493 3.052 17.2987 2.38 16.552C1.72667 15.7867 1.4 14.76 1.4 13.472C1.4 12.3893 1.68933 11.4093 2.268 10.532C2.86533 9.636 3.752 8.92667 4.928 8.404C6.12267 7.88133 7.57867 7.62 9.296 7.62C10.4907 7.62 11.6667 7.76933 12.824 8.068C13.9813 8.36667 14.98 8.796 15.82 9.356L14.672 12.184C13.8133 11.68 12.9173 11.2973 11.984 11.036C11.0507 10.7747 10.1453 10.644 9.268 10.644C7.83067 10.644 6.75733 10.8867 6.048 11.372C5.35733 11.8573 5.012 12.5013 5.012 13.304C5.012 13.864 5.208 14.3213 5.6 14.676C6.01067 15.0307 6.524 15.3107 7.14 15.516C7.756 15.7213 8.596 15.9547 9.66 16.216C11.116 16.552 12.3107 16.9067 13.244 17.28C14.1773 17.6347 14.9707 18.1853 15.624 18.932C16.296 19.6787 16.632 20.6867 16.632 21.956C16.632 23.0387 16.3333 24.0187 15.736 24.896C15.1573 25.7733 14.2707 26.4733 13.076 26.996C11.8813 27.5187 10.4253 27.78 8.708 27.78ZM19.9054 12.548H23.4054V27.5H19.9054V12.548ZM21.6694 10.084C21.0347 10.084 20.5027 9.888 20.0734 9.496C19.644 9.08533 19.4294 8.58133 19.4294 7.984C19.4294 7.38667 19.644 6.892 20.0734 6.5C20.5027 6.08933 21.0347 5.884 21.6694 5.884C22.304 5.884 22.836 6.08 23.2654 6.472C23.6947 6.84533 23.9094 7.32133 23.9094 7.9C23.9094 8.516 23.6947 9.03867 23.2654 9.468C22.8547 9.87867 22.3227 10.084 21.6694 10.084ZM36.4831 12.38C38.3685 12.38 39.8805 12.9307 41.0191 14.032C42.1578 15.1333 42.7271 16.7667 42.7271 18.932V27.5H39.2271V19.38C39.2271 18.0733 38.9191 17.0933 38.3031 16.44C37.6871 15.768 36.8098 15.432 35.6711 15.432C34.3831 15.432 33.3658 15.824 32.6191 16.608C31.8725 17.3733 31.4991 18.484 31.4991 19.94V27.5H27.9991V12.548H31.3311V14.48C31.9098 13.7893 32.6378 13.2667 33.5151 12.912C34.3925 12.5573 35.3818 12.38 36.4831 12.38ZM52.8791 12.38C55.0818 12.38 56.7618 12.912 57.9191 13.976C59.0951 15.0213 59.6831 16.608 59.6831 18.736V27.5H56.3791V25.68C55.9498 26.3333 55.3338 26.8373 54.5311 27.192C53.7471 27.528 52.7951 27.696 51.6751 27.696C50.5551 27.696 49.5751 27.5093 48.7351 27.136C47.8951 26.744 47.2418 26.212 46.7751 25.54C46.3271 24.8493 46.1031 24.0747 46.1031 23.216C46.1031 21.872 46.5978 20.7987 47.5871 19.996C48.5951 19.1747 50.1724 18.764 52.3191 18.764H56.1831V18.54C56.1831 17.4947 55.8658 16.692 55.2311 16.132C54.6151 15.572 53.6911 15.292 52.4591 15.292C51.6191 15.292 50.7884 15.4227 49.9671 15.684C49.1644 15.9453 48.4831 16.3093 47.9231 16.776L46.5511 14.228C47.3351 13.6307 48.2778 13.1733 49.3791 12.856C50.4804 12.5387 51.6471 12.38 52.8791 12.38ZM52.4031 25.148C53.2804 25.148 54.0551 24.952 54.7271 24.56C55.4178 24.1493 55.9031 23.5707 56.1831 22.824V21.088H52.5711C50.5551 21.088 49.5471 21.7507 49.5471 23.076C49.5471 23.7107 49.7991 24.2147 50.3031 24.588C50.8071 24.9613 51.5071 25.148 52.4031 25.148ZM67.5069 14.732C68.5149 13.164 70.2882 12.38 72.8269 12.38V15.712C72.5282 15.656 72.2576 15.628 72.0149 15.628C70.6522 15.628 69.5882 16.0293 68.8229 16.832C68.0576 17.616 67.6749 18.7547 67.6749 20.248V27.5H64.1749V12.548H67.5069V14.732Z" fill="#F40000"/>
<path d="M80.0085 27.5V7.13636H83.6974V24.4077H92.6662V27.5H80.0085ZM102.371 27.7983C100.879 27.7983 99.5866 27.4702 98.4929 26.8139C97.3991 26.1577 96.5507 25.2396 95.9474 24.0597C95.3509 22.8797 95.0526 21.5009 95.0526 19.9233C95.0526 18.3456 95.3509 16.9635 95.9474 15.777C96.5507 14.5904 97.3991 13.669 98.4929 13.0128C99.5866 12.3565 100.879 12.0284 102.371 12.0284C103.862 12.0284 105.155 12.3565 106.249 13.0128C107.342 13.669 108.188 14.5904 108.784 15.777C109.387 16.9635 109.689 18.3456 109.689 19.9233C109.689 21.5009 109.387 22.8797 108.784 24.0597C108.188 25.2396 107.342 26.1577 106.249 26.8139C105.155 27.4702 103.862 27.7983 102.371 27.7983ZM102.391 24.9148C103.199 24.9148 103.875 24.6927 104.419 24.2486C104.963 23.7978 105.367 23.1946 105.632 22.4389C105.904 21.6832 106.04 20.8414 106.04 19.9134C106.04 18.9787 105.904 18.1335 105.632 17.3778C105.367 16.6155 104.963 16.009 104.419 15.5582C103.875 15.1075 103.199 14.8821 102.391 14.8821C101.562 14.8821 100.873 15.1075 100.322 15.5582C99.7789 16.009 99.3712 16.6155 99.0994 17.3778C98.8343 18.1335 98.7017 18.9787 98.7017 19.9134C98.7017 20.8414 98.8343 21.6832 99.0994 22.4389C99.3712 23.1946 99.7789 23.7978 100.322 24.2486C100.873 24.6927 101.562 24.9148 102.391 24.9148ZM119.386 33.5455C118.093 33.5455 116.983 33.3698 116.055 33.0185C115.127 32.6738 114.381 32.2098 113.818 31.6264C113.254 31.0431 112.863 30.3968 112.645 29.6875L115.886 28.902C116.032 29.2003 116.244 29.4953 116.522 29.7869C116.801 30.0852 117.175 30.3305 117.646 30.5227C118.123 30.7216 118.723 30.821 119.446 30.821C120.467 30.821 121.312 30.5724 121.981 30.0753C122.651 29.5848 122.985 28.776 122.985 27.6491V24.7557H122.806C122.621 25.1269 122.349 25.508 121.991 25.8991C121.64 26.2902 121.172 26.6184 120.589 26.8835C120.012 27.1487 119.287 27.2812 118.412 27.2812C117.238 27.2812 116.174 27.0062 115.22 26.456C114.272 25.8991 113.516 25.0705 112.953 23.9702C112.396 22.8632 112.118 21.4777 112.118 19.8139C112.118 18.1368 112.396 16.7216 112.953 15.5682C113.516 14.4081 114.275 13.5298 115.23 12.9332C116.184 12.33 117.248 12.0284 118.422 12.0284C119.316 12.0284 120.052 12.1809 120.629 12.4858C121.212 12.7841 121.676 13.1454 122.021 13.5696C122.366 13.9872 122.627 14.3816 122.806 14.7528H123.005V12.2273H126.555V27.7486C126.555 29.0545 126.243 30.1349 125.62 30.9901C124.997 31.8452 124.145 32.4848 123.065 32.9091C121.984 33.3333 120.758 33.5455 119.386 33.5455ZM119.416 24.4574C120.178 24.4574 120.828 24.2718 121.365 23.9006C121.902 23.5294 122.309 22.9957 122.588 22.2997C122.866 21.6037 123.005 20.7685 123.005 19.794C123.005 18.8329 122.866 17.991 122.588 17.2685C122.316 16.5459 121.912 15.9858 121.375 15.5881C120.844 15.1837 120.191 14.9815 119.416 14.9815C118.614 14.9815 117.944 15.1903 117.407 15.608C116.87 16.0256 116.466 16.599 116.194 17.3281C115.922 18.0507 115.787 18.8726 115.787 19.794C115.787 20.7287 115.922 21.5473 116.194 22.25C116.473 22.946 116.88 23.4896 117.417 23.8807C117.961 24.2652 118.627 24.4574 119.416 24.4574Z" fill="#2B2B2B"/>
</svg>
