<svg width="129" height="34" viewBox="0 0 129 34" fill="none" xmlns="http://www.w3.org/2000/svg">
<path d="M8.708 27.28C7.196 27.28 5.73067 27.0653 4.312 26.636C2.912 26.2067 1.80133 25.6373 0.98 24.928L2.24 22.1C3.04267 22.7347 4.02267 23.2573 5.18 23.668C6.356 24.06 7.532 24.256 8.708 24.256C10.164 24.256 11.2467 24.0227 11.956 23.556C12.684 23.0893 13.048 22.4733 13.048 21.708C13.048 21.148 12.8427 20.6907 12.432 20.336C12.04 19.9627 11.536 19.6733 10.92 19.468C10.304 19.2627 9.464 19.0293 8.4 18.768C6.90667 18.4133 5.69333 18.0587 4.76 17.704C3.84533 17.3493 3.052 16.7987 2.38 16.052C1.72667 15.2867 1.4 14.26 1.4 12.972C1.4 11.8893 1.68933 10.9093 2.268 10.032C2.86533 9.136 3.752 8.42667 4.928 7.904C6.12267 7.38133 7.57867 7.12 9.296 7.12C10.4907 7.12 11.6667 7.26933 12.824 7.568C13.9813 7.86667 14.98 8.296 15.82 8.856L14.672 11.684C13.8133 11.18 12.9173 10.7973 11.984 10.536C11.0507 10.2747 10.1453 10.144 9.268 10.144C7.83067 10.144 6.75733 10.3867 6.048 10.872C5.35733 11.3573 5.012 12.0013 5.012 12.804C5.012 13.364 5.208 13.8213 5.6 14.176C6.01067 14.5307 6.524 14.8107 7.14 15.016C7.756 15.2213 8.596 15.4547 9.66 15.716C11.116 16.052 12.3107 16.4067 13.244 16.78C14.1773 17.1347 14.9707 17.6853 15.624 18.432C16.296 19.1787 16.632 20.1867 16.632 21.456C16.632 22.5387 16.3333 23.5187 15.736 24.396C15.1573 25.2733 14.2707 25.9733 13.076 26.496C11.8813 27.0187 10.4253 27.28 8.708 27.28ZM19.9054 12.048H23.4054V27H19.9054V12.048ZM21.6694 9.584C21.0347 9.584 20.5027 9.388 20.0734 8.996C19.644 8.58533 19.4294 8.08133 19.4294 7.484C19.4294 6.88667 19.644 6.392 20.0734 6C20.5027 5.58933 21.0347 5.384 21.6694 5.384C22.304 5.384 22.836 5.58 23.2654 5.972C23.6947 6.34533 23.9094 6.82133 23.9094 7.4C23.9094 8.016 23.6947 8.53867 23.2654 8.968C22.8547 9.37867 22.3227 9.584 21.6694 9.584ZM36.4831 11.88C38.3685 11.88 39.8805 12.4307 41.0191 13.532C42.1578 14.6333 42.7271 16.2667 42.7271 18.432V27H39.2271V18.88C39.2271 17.5733 38.9191 16.5933 38.3031 15.94C37.6871 15.268 36.8098 14.932 35.6711 14.932C34.3831 14.932 33.3658 15.324 32.6191 16.108C31.8725 16.8733 31.4991 17.984 31.4991 19.44V27H27.9991V12.048H31.3311V13.98C31.9098 13.2893 32.6378 12.7667 33.5151 12.412C34.3925 12.0573 35.3818 11.88 36.4831 11.88ZM52.8791 11.88C55.0818 11.88 56.7618 12.412 57.9191 13.476C59.0951 14.5213 59.6831 16.108 59.6831 18.236V27H56.3791V25.18C55.9498 25.8333 55.3338 26.3373 54.5311 26.692C53.7471 27.028 52.7951 27.196 51.6751 27.196C50.5551 27.196 49.5751 27.0093 48.7351 26.636C47.8951 26.244 47.2418 25.712 46.7751 25.04C46.3271 24.3493 46.1031 23.5747 46.1031 22.716C46.1031 21.372 46.5978 20.2987 47.5871 19.496C48.5951 18.6747 50.1724 18.264 52.3191 18.264H56.1831V18.04C56.1831 16.9947 55.8658 16.192 55.2311 15.632C54.6151 15.072 53.6911 14.792 52.4591 14.792C51.6191 14.792 50.7884 14.9227 49.9671 15.184C49.1644 15.4453 48.4831 15.8093 47.9231 16.276L46.5511 13.728C47.3351 13.1307 48.2778 12.6733 49.3791 12.356C50.4804 12.0387 51.6471 11.88 52.8791 11.88ZM52.4031 24.648C53.2804 24.648 54.0551 24.452 54.7271 24.06C55.4178 23.6493 55.9031 23.0707 56.1831 22.324V20.588H52.5711C50.5551 20.588 49.5471 21.2507 49.5471 22.576C49.5471 23.2107 49.7991 23.7147 50.3031 24.088C50.8071 24.4613 51.5071 24.648 52.4031 24.648ZM67.5069 14.232C68.5149 12.664 70.2882 11.88 72.8269 11.88V15.212C72.5282 15.156 72.2576 15.128 72.0149 15.128C70.6522 15.128 69.5882 15.5293 68.8229 16.332C68.0576 17.116 67.6749 18.2547 67.6749 19.748V27H64.1749V12.048H67.5069V14.232Z" fill="#F40000"/>
<path d="M80.0085 27V6.63636H83.6974V23.9077H92.6662V27H80.0085ZM102.371 27.2983C100.879 27.2983 99.5866 26.9702 98.4929 26.3139C97.3991 25.6577 96.5507 24.7396 95.9474 23.5597C95.3509 22.3797 95.0526 21.0009 95.0526 19.4233C95.0526 17.8456 95.3509 16.4635 95.9474 15.277C96.5507 14.0904 97.3991 13.169 98.4929 12.5128C99.5866 11.8565 100.879 11.5284 102.371 11.5284C103.862 11.5284 105.155 11.8565 106.249 12.5128C107.342 13.169 108.188 14.0904 108.784 15.277C109.387 16.4635 109.689 17.8456 109.689 19.4233C109.689 21.0009 109.387 22.3797 108.784 23.5597C108.188 24.7396 107.342 25.6577 106.249 26.3139C105.155 26.9702 103.862 27.2983 102.371 27.2983ZM102.391 24.4148C103.199 24.4148 103.875 24.1927 104.419 23.7486C104.963 23.2978 105.367 22.6946 105.632 21.9389C105.904 21.1832 106.04 20.3414 106.04 19.4134C106.04 18.4787 105.904 17.6335 105.632 16.8778C105.367 16.1155 104.963 15.509 104.419 15.0582C103.875 14.6075 103.199 14.3821 102.391 14.3821C101.562 14.3821 100.873 14.6075 100.322 15.0582C99.7789 15.509 99.3712 16.1155 99.0994 16.8778C98.8343 17.6335 98.7017 18.4787 98.7017 19.4134C98.7017 20.3414 98.8343 21.1832 99.0994 21.9389C99.3712 22.6946 99.7789 23.2978 100.322 23.7486C100.873 24.1927 101.562 24.4148 102.391 24.4148ZM119.386 33.0455C118.093 33.0455 116.983 32.8698 116.055 32.5185C115.127 32.1738 114.381 31.7098 113.818 31.1264C113.254 30.5431 112.863 29.8968 112.645 29.1875L115.886 28.402C116.032 28.7003 116.244 28.9953 116.522 29.2869C116.801 29.5852 117.175 29.8305 117.646 30.0227C118.123 30.2216 118.723 30.321 119.446 30.321C120.467 30.321 121.312 30.0724 121.981 29.5753C122.651 29.0848 122.985 28.276 122.985 27.1491V24.2557H122.806C122.621 24.6269 122.349 25.008 121.991 25.3991C121.64 25.7902 121.172 26.1184 120.589 26.3835C120.012 26.6487 119.287 26.7812 118.412 26.7812C117.238 26.7812 116.174 26.5062 115.22 25.956C114.272 25.3991 113.516 24.5705 112.953 23.4702C112.396 22.3632 112.118 20.9777 112.118 19.3139C112.118 17.6368 112.396 16.2216 112.953 15.0682C113.516 13.9081 114.275 13.0298 115.23 12.4332C116.184 11.83 117.248 11.5284 118.422 11.5284C119.316 11.5284 120.052 11.6809 120.629 11.9858C121.212 12.2841 121.676 12.6454 122.021 13.0696C122.366 13.4872 122.627 13.8816 122.806 14.2528H123.005V11.7273H126.555V27.2486C126.555 28.5545 126.243 29.6349 125.62 30.4901C124.997 31.3452 124.145 31.9848 123.065 32.4091C121.984 32.8333 120.758 33.0455 119.386 33.0455ZM119.416 23.9574C120.178 23.9574 120.828 23.7718 121.365 23.4006C121.902 23.0294 122.309 22.4957 122.588 21.7997C122.866 21.1037 123.005 20.2685 123.005 19.294C123.005 18.3329 122.866 17.491 122.588 16.7685C122.316 16.0459 121.912 15.4858 121.375 15.0881C120.844 14.6837 120.191 14.4815 119.416 14.4815C118.614 14.4815 117.944 14.6903 117.407 15.108C116.87 15.5256 116.466 16.099 116.194 16.8281C115.922 17.5507 115.787 18.3726 115.787 19.294C115.787 20.2287 115.922 21.0473 116.194 21.75C116.473 22.446 116.88 22.9896 117.417 23.3807C117.961 23.7652 118.627 23.9574 119.416 23.9574Z" fill="white"/>
</svg>
