<svg width="200" height="180" viewBox="0 0 200 180" fill="none" xmlns="http://www.w3.org/2000/svg">
  <g clipPath="url(#clip0_527_2327)">
    <path
      d="M198.245 68.6578C198.174 68.6579 198.104 68.6359 198.045 68.595L101.007 1.01477C100.711 0.810068 100.36 0.700671 100.001 0.701284C99.6418 0.701897 99.2913 0.812488 98.9967 1.0182L2.65745 68.5943C2.58125 68.6477 2.48694 68.6687 2.39527 68.6526C2.30359 68.6365 2.22206 68.5847 2.16861 68.5085C2.11517 68.4323 2.09418 68.338 2.11026 68.2463C2.12635 68.1546 2.1782 68.0731 2.2544 68.0196L98.5937 0.443566C99.0062 0.155618 99.4969 0.000832904 100 6.19e-06C100.503 -0.000820524 100.994 0.15235 101.408 0.43894L198.446 68.0189C198.507 68.0617 198.553 68.1228 198.577 68.1935C198.602 68.2643 198.602 68.3408 198.58 68.4121C198.558 68.4834 198.513 68.5456 198.453 68.5898C198.393 68.634 198.32 68.6579 198.245 68.6578Z"
      fill="#3F3D56" />
    <path
      d="M8.1626 71.0533L100.097 2.91895L192.728 75.9014L104.833 128.007L57.1142 117.129L8.1626 71.0533Z"
      fill="#E6E6E6" />
    <path
      d="M61.1424 160.19H15.7247C15.4458 160.19 15.1696 160.136 14.9119 160.029C14.6541 159.923 14.4199 159.766 14.2225 159.569C14.0252 159.372 13.8687 159.138 13.7619 158.881C13.6551 158.623 13.6001 158.347 13.6001 158.068C13.6001 157.789 13.6551 157.513 13.7619 157.255C13.8687 156.998 14.0252 156.764 14.2225 156.567C14.4199 156.37 14.6541 156.213 14.9119 156.107C15.1696 156 15.4458 155.946 15.7247 155.946H61.1424C61.4212 155.946 61.6975 156 61.9552 156.107C62.213 156.213 62.4472 156.37 62.6445 156.567C62.8418 156.764 62.9984 156.998 63.1052 157.255C63.212 157.513 63.267 157.789 63.267 158.068C63.267 158.347 63.212 158.623 63.1052 158.881C62.9984 159.138 62.8418 159.372 62.6445 159.569C62.4472 159.766 62.213 159.923 61.9552 160.029C61.6975 160.136 61.4212 160.19 61.1424 160.19Z"
      fill="#16C098" />
    <path
      d="M32.0196 151.067H15.7247C15.4458 151.067 15.1696 151.013 14.9119 150.906C14.6541 150.8 14.4199 150.644 14.2225 150.447C14.0252 150.249 13.8687 150.015 13.7619 149.758C13.6551 149.5 13.6001 149.224 13.6001 148.945C13.6001 148.666 13.6551 148.39 13.7619 148.133C13.8687 147.875 14.0252 147.641 14.2225 147.444C14.4199 147.247 14.6541 147.09 14.9119 146.984C15.1696 146.878 15.4458 146.823 15.7247 146.823H32.0196C32.2984 146.823 32.5746 146.878 32.8324 146.984C33.0902 147.09 33.3244 147.247 33.5217 147.444C33.719 147.641 33.8756 147.875 33.9824 148.133C34.0892 148.39 34.1442 148.666 34.1442 148.945C34.1442 149.224 34.0892 149.5 33.9824 149.758C33.8756 150.015 33.719 150.249 33.5217 150.447C33.3244 150.644 33.0902 150.8 32.8324 150.906C32.5746 151.013 32.2984 151.067 32.0196 151.067Z"
      fill="#16C098" />
    <path
      d="M101.389 109.003C101.044 109.004 100.702 108.937 100.383 108.806L43.6841 85.2802V11.6402C43.6848 10.9891 43.9438 10.3648 44.4043 9.90431C44.8647 9.44386 45.489 9.18484 46.1402 9.18409H154.912C155.563 9.18485 156.188 9.44386 156.648 9.90431C157.109 10.3648 157.368 10.9891 157.368 11.6402V85.3316L157.262 85.3772L102.427 108.795C102.098 108.933 101.746 109.004 101.389 109.003Z"
      fill="white" />
    <path
      d="M101.389 109.179C101.021 109.179 100.657 109.108 100.316 108.969L43.5088 85.3974V11.6402C43.5096 10.9425 43.7871 10.2736 44.2804 9.78028C44.7738 9.28694 45.4427 9.00943 46.1404 9.00864H154.912C155.61 9.00943 156.279 9.28694 156.772 9.78028C157.266 10.2736 157.543 10.9425 157.544 11.6402V85.4474L102.496 108.956C102.145 109.103 101.769 109.179 101.389 109.179ZM44.2105 84.9287L100.584 108.32C101.109 108.533 101.698 108.53 102.221 108.31L156.842 84.9842V11.6402C156.842 11.1286 156.638 10.6381 156.276 10.2763C155.914 9.91451 155.424 9.711 154.912 9.71039H46.1404C45.6287 9.711 45.1382 9.91451 44.7765 10.2763C44.4147 10.6381 44.2112 11.1286 44.2106 11.6402L44.2105 84.9287Z"
      fill="#3F3D56" />
    <path
      d="M197.544 67.9561H197.474L157.193 85.1561L102.081 108.689C101.865 108.78 101.634 108.827 101.401 108.828C101.167 108.83 100.936 108.785 100.719 108.696L43.8596 85.107L2.58943 67.9842L2.52638 67.9561H2.45614C1.80495 67.9568 1.18064 68.2158 0.720183 68.6763C0.259724 69.1367 0.000722544 69.761 0 70.4122V177.079C0.000723471 177.73 0.259724 178.354 0.720183 178.815C1.18064 179.275 1.80495 179.534 2.45614 179.535H197.544C198.195 179.534 198.819 179.275 199.28 178.815C199.74 178.354 199.999 177.73 200 177.079V70.4122C199.999 69.761 199.74 69.1367 199.28 68.6763C198.819 68.2158 198.195 67.9568 197.544 67.9561ZM199.298 177.079C199.298 177.544 199.113 177.99 198.784 178.319C198.455 178.648 198.009 178.833 197.544 178.833H2.45614C1.99091 178.833 1.54478 178.648 1.21581 178.319C0.886839 177.99 0.70194 177.544 0.701754 177.079V70.4122C0.702391 69.9585 0.878372 69.5227 1.19291 69.1957C1.50744 68.8687 1.93617 68.676 2.38949 68.6578L43.8596 85.8648L100.449 109.346C101.062 109.595 101.748 109.591 102.358 109.335L157.193 85.9175L197.614 68.6578C198.067 68.6774 198.494 68.8706 198.808 69.1974C199.122 69.5242 199.297 69.9593 199.298 70.4122V177.079Z"
      fill="#3F3D56" />
    <path
      d="M100.823 88.1217C98.7296 88.1257 96.692 87.4488 95.0172 86.1933L94.9134 86.1153L73.0499 69.3759C72.0373 68.6 71.1875 67.6324 70.5489 66.5282C69.9104 65.4239 69.4955 64.2047 69.3281 62.9401C69.1607 61.6756 69.2441 60.3904 69.5733 59.1581C69.9026 57.9257 70.4714 56.7703 71.2472 55.7577C72.023 54.7452 72.9907 53.8954 74.0949 53.2568C75.1992 52.6182 76.4184 52.2034 77.6829 52.036C78.9475 51.8686 80.2326 51.9519 81.465 52.2812C82.6973 52.6105 83.8528 53.1793 84.8653 53.9551L99.0269 64.8139L132.493 21.1695C133.269 20.1572 134.237 19.3077 135.341 18.6695C136.446 18.0313 137.665 17.6169 138.93 17.45C140.194 17.283 141.48 17.3668 142.712 17.6966C143.944 18.0263 145.099 18.5955 146.111 19.3718L145.903 19.6543L146.117 19.3759C148.159 20.9452 149.495 23.2604 149.832 25.8135C150.169 28.3667 149.479 30.9492 147.915 32.9946L108.551 84.331C107.64 85.5139 106.47 86.4713 105.129 87.1287C103.789 87.7861 102.316 88.1259 100.823 88.1217Z"
      fill="#16C098" />
  </g>
  <defs>
    <clipPath id="clip0_527_2327">
      <rect width="200" height="179.535" fill="white" />
    </clipPath>
  </defs>
</svg>
