<svg width="82" height="71" viewBox="0 0 82 71" fill="none" xmlns="http://www.w3.org/2000/svg">
<path d="M32.2427 70.7553C30.1496 70.7592 28.1119 70.0824 26.4371 68.8269L26.3333 68.7489L4.46979 52.0094C3.45725 51.2336 2.60742 50.266 1.96885 49.1617C1.33027 48.0575 0.915452 46.8383 0.74806 45.5737C0.580668 44.3091 0.663996 43.024 0.993271 41.7916C1.32255 40.5593 1.89132 39.4038 2.66713 38.3913C3.44295 37.3788 4.4106 36.5289 5.51484 35.8904C6.61908 35.2518 7.83829 34.837 9.10285 34.6696C10.3674 34.5022 11.6526 34.5855 12.8849 34.9148C14.1173 35.244 15.2727 35.8128 16.2853 36.5886L30.4468 47.4475L63.9127 3.80304C64.6889 2.79075 65.6568 1.94126 66.7613 1.30307C67.8657 0.664872 69.0851 0.250473 70.3497 0.0835367C71.6143 -0.0833993 72.8995 0.000395231 74.1317 0.330135C75.3639 0.659874 76.5192 1.2291 77.5314 2.00531L77.3233 2.28783L77.5368 2.00942C79.5787 3.57874 80.9147 5.89394 81.2517 8.44708C81.5888 11.0002 80.8993 13.5828 79.3345 15.6282L39.9706 66.9645C39.0601 68.1475 37.8894 69.1048 36.5492 69.7622C35.2091 70.4197 33.7354 70.7595 32.2427 70.7553Z" fill="#0AD059"/>
</svg>
